<?xml version="1.0" standalone="no"?>
<!DOCTYPE svg PUBLIC "-//W3C//DTD SVG 20010904//EN"
 "http://www.w3.org/TR/2001/REC-SVG-20010904/DTD/svg10.dtd">
<svg version="1.0" xmlns="http://www.w3.org/2000/svg"
 width="1152.000000pt" height="1152.000000pt" viewBox="0 0 1152.000000 1152.000000"
 preserveAspectRatio="xMidYMid meet">

<g transform="translate(0.000000,1152.000000) scale(0.100000,-0.100000)"
fill="#000000" stroke="none">
<path d="M11338 11493 c34 -2 90 -2 125 0 34 2 6 3 -63 3 -69 0 -97 -1 -62 -3z"/>
<path d="M5765 11383 c-439 -15 -903 -65 -1270 -139 -1321 -264 -2489 -841
-3442 -1702 -333 -300 -700 -711 -962 -1074 l-91 -127 0 -3699 0 -3698 73
-120 c142 -232 356 -534 379 -534 8 0 9 69 4 238 -11 373 20 887 75 1237 70
447 226 820 438 1047 62 66 185 157 197 146 2 -3 -32 -41 -75 -86 -44 -45
-100 -111 -126 -146 -106 -150 -237 -471 -339 -831 -53 -189 -108 -572 -127
-885 -11 -190 -6 -902 7 -977 l6 -33 150 0 150 0 -6 31 c-3 17 -6 38 -6 46 0
8 -4 12 -9 8 -5 -3 -12 -1 -16 5 -3 5 -1 10 6 10 7 0 5 8 -6 20 -11 13 -19 36
-19 60 0 22 -3 40 -7 40 -5 0 -14 29 -23 80 -1 3 -4 10 -7 15 -4 6 -4 19 -2
30 5 25 5 25 -7 110 -16 108 -22 176 -21 225 0 24 -5 47 -10 51 -10 6 -16 55
-20 159 -1 14 2 40 6 57 3 18 3 33 -2 33 -4 0 -7 19 -6 42 0 24 -4 46 -9 49
-6 4 -7 12 -2 20 8 14 10 25 18 138 3 35 11 68 17 72 10 6 10 11 0 23 -10 12
-10 28 2 83 8 37 18 92 22 121 4 28 10 52 15 52 4 0 8 21 8 48 0 58 9 130 19
145 4 6 7 23 8 37 1 14 6 48 13 75 6 28 14 67 17 87 3 21 10 38 15 38 6 0 10
5 10 11 0 5 -4 8 -9 4 -6 -3 -9 4 -8 15 1 11 7 20 15 20 9 0 13 10 11 27 -1
16 4 42 11 58 7 17 12 35 11 41 0 6 5 17 13 23 8 7 12 19 10 26 -3 7 0 23 6
35 8 15 8 20 1 16 -6 -4 -11 -2 -11 3 0 6 5 11 10 11 6 0 10 9 10 20 0 12 6
31 14 43 8 12 17 40 21 61 4 22 15 51 26 64 10 14 19 33 19 43 0 11 3 19 8 19
4 0 16 16 26 35 10 19 23 32 27 29 5 -3 9 -1 9 5 0 5 -6 12 -12 14 -10 4 -10
6 0 6 6 1 12 9 12 19 0 9 15 33 33 53 17 20 33 42 35 50 2 7 19 28 38 47 19
18 34 36 34 41 0 4 16 15 35 24 19 9 35 21 35 27 0 5 4 10 10 10 5 0 37 27 71
60 35 35 68 59 76 56 7 -3 13 -1 13 5 0 6 4 8 9 5 5 -4 11 -1 13 5 2 5 38 13
80 16 156 12 317 -66 480 -233 80 -82 207 -235 227 -273 5 -9 12 -38 16 -66 8
-58 44 -132 94 -196 20 -25 52 -76 71 -113 30 -57 33 -68 20 -76 -19 -13 -87
-3 -124 19 -35 20 -75 95 -84 159 -7 42 -8 44 -22 27 -10 -13 -15 -41 -15 -96
0 -70 3 -81 30 -121 40 -57 112 -104 180 -118 58 -12 71 -31 36 -50 -67 -35
-219 32 -237 106 -8 32 -24 31 -24 -2 0 -100 79 -207 173 -233 129 -37 227 28
284 187 8 22 15 13 73 -85 95 -162 186 -341 204 -402 21 -72 20 -125 -4 -265
-37 -214 -86 -327 -187 -430 -46 -47 -81 -63 -126 -58 -104 12 -86 191 50 500
30 68 53 126 50 128 -12 12 -84 -118 -152 -271 -36 -83 -45 -62 -45 114 0 184
-17 179 -31 -9 -5 -73 -11 -135 -13 -139 -3 -4 -10 -70 -16 -146 -6 -77 -15
-156 -20 -175 -5 -19 -12 -48 -15 -65 -3 -16 -7 -34 -9 -40 -2 -9 -13 -59 -21
-105 -11 -55 -28 -117 -40 -146 -8 -19 -11 -34 -8 -34 3 0 -2 -12 -12 -26 -9
-15 -12 -23 -6 -20 6 4 11 2 11 -3 0 -6 -4 -11 -9 -11 -7 0 -19 -31 -22 -57
-1 -5 -6 -17 -12 -28 -6 -11 -12 -31 -13 -45 -1 -14 -3 -27 -4 -30 -1 -3 -2
-9 -1 -14 1 -5 -8 -21 -21 -35 -23 -26 -48 -66 -48 -76 0 -3 1002 -4 2227 -3
l2227 3 23 40 c27 48 28 55 6 55 -16 0 -16 -2 -3 -11 13 -9 13 -10 0 -6 -8 2
-16 13 -16 25 -2 37 -4 40 -20 46 -10 4 -13 2 -8 -6 5 -7 2 -9 -8 -5 -9 3 -28
-1 -43 -9 -15 -8 -28 -14 -30 -14 -1 0 -2 123 -3 273 -1 232 2 279 16 321 13
38 14 50 5 53 -15 5 -18 224 -4 251 5 10 5 41 1 72 -5 30 -14 249 -20 485 -6
237 -15 581 -20 765 -5 184 -6 667 -2 1073 l7 739 24 -26 24 -25 -22 4 c-19 3
-21 2 -11 -10 10 -12 10 -15 0 -15 -8 0 -10 -8 -5 -27 4 -16 8 -34 8 -41 0 -7
6 -11 13 -8 8 3 16 0 20 -6 4 -6 3 -8 -4 -4 -11 7 -28 -31 -18 -41 3 -4 6 1 6
9 0 22 35 16 36 -6 2 -14 1 -14 -3 0 -4 14 -7 13 -19 -5 -13 -18 -13 -24 2
-46 9 -14 20 -25 25 -25 15 0 10 12 -13 39 -13 14 -16 20 -7 14 17 -14 59 -6
59 11 0 6 5 4 10 -4 7 -11 12 -12 21 -3 6 6 8 17 3 25 -15 23 -14 41 1 28 17
-14 11 -61 -12 -97 -16 -24 -18 -25 -21 -7 -2 10 -8 23 -13 28 -5 6 -7 1 -4
-12 5 -30 15 -43 25 -37 4 3 11 -2 14 -10 4 -12 11 -13 23 -7 21 11 46 5 37
-9 -3 -5 -2 -15 3 -21 12 -20 11 -58 -1 -52 -6 3 -3 -1 7 -9 10 -9 19 -19 19
-24 1 -20 19 -53 28 -53 6 0 8 -5 5 -11 -4 -6 -13 -8 -21 -5 -8 3 -14 -1 -14
-9 0 -9 6 -12 17 -8 11 4 14 3 9 -5 -4 -7 -3 -12 1 -12 5 0 15 -21 22 -46 8
-27 17 -41 21 -34 4 7 7 -1 7 -17 1 -15 3 -35 5 -43 45 -153 109 -309 131
-318 4 -2 7 -10 7 -17 0 -8 9 -20 20 -28 11 -8 17 -17 13 -20 -3 -4 -1 -7 5
-7 7 0 12 -6 12 -14 0 -8 11 -23 25 -34 13 -11 22 -21 20 -24 -3 -2 9 -17 25
-33 17 -16 30 -35 30 -42 0 -8 4 -12 8 -9 5 3 30 -15 56 -40 26 -24 70 -56 97
-70 58 -29 128 -89 139 -120 5 -12 5 -35 1 -51 l-8 -28 -7 39 c-5 26 -14 40
-28 43 -13 4 -16 8 -7 13 20 13 -28 32 -62 25 -37 -8 -63 -47 -62 -93 1 -25
-2 -31 -9 -21 -22 32 7 -39 55 -135 62 -124 64 -142 43 -391 -9 -104 -21 -300
-27 -435 -12 -296 -19 -1553 -9 -1630 4 -30 6 71 3 225 -5 307 11 1182 27
1475 15 268 40 531 52 554 6 11 23 37 38 58 29 39 82 158 130 287 15 42 44
114 63 161 20 47 38 99 40 116 3 17 34 89 70 160 36 71 71 143 76 159 11 28
10 29 -5 10 -87 -111 -305 -554 -395 -805 -21 -58 -38 -94 -39 -80 0 28 65
281 112 432 26 85 28 100 16 122 -24 45 -309 469 -407 606 -312 434 -423 605
-519 797 -74 146 -73 136 -8 202 l55 56 -132 -3 c-72 -2 -149 -7 -169 -13 -24
-6 -64 -35 -115 -82 -198 -184 -466 -385 -599 -449 -40 -20 -44 -20 -68 -4
-14 9 -26 21 -26 26 0 5 44 41 98 81 117 87 347 315 424 419 61 82 161 243
317 507 100 171 121 199 121 167 0 -18 32 25 79 108 30 52 38 50 48 -12 2 -14
11 -39 19 -56 8 -17 23 -64 33 -105 11 -41 32 -105 47 -144 15 -38 28 -89 28
-112 1 -22 4 -39 7 -37 12 7 17 -20 7 -41 -8 -18 -8 -18 -4 3 2 13 0 20 -6 16
-5 -4 -8 -17 -5 -30 2 -14 -2 -25 -11 -29 -10 -3 -12 -13 -8 -30 4 -15 2 -25
-4 -25 -6 0 -9 -4 -6 -8 3 -5 -10 -38 -28 -75 -26 -51 -30 -64 -16 -57 9 5 34
47 55 94 36 79 40 84 52 65 8 -10 13 -27 11 -37 -1 -9 1 -23 5 -29 5 -8 3 -13
-4 -13 -6 0 -2 -8 9 -17 12 -10 23 -31 25 -48 7 -44 18 -75 28 -75 5 0 9 -7 9
-15 0 -8 18 -49 39 -90 22 -42 40 -77 40 -78 0 -1 4 -15 10 -30 6 -16 11 -37
11 -47 0 -10 7 -25 15 -34 8 -8 15 -21 15 -28 0 -7 7 -24 16 -36 8 -12 12 -22
8 -22 -4 0 1 -9 11 -20 10 -11 14 -20 10 -20 -4 0 -1 -8 8 -17 8 -10 16 -22
17 -28 3 -22 105 -226 108 -217 1 5 -11 51 -27 103 -17 51 -29 95 -27 96 2 2
43 -26 92 -61 155 -114 292 -206 336 -227 l43 -20 -100 6 c-118 8 -235 29
-276 49 -16 8 -29 11 -29 8 1 -50 166 -86 391 -85 203 1 247 8 262 42 18 42
101 163 232 341 68 91 130 181 140 200 l18 35 15 -53 15 -52 51 102 c57 114
122 218 136 218 17 0 -10 -63 -73 -168 -66 -110 -94 -161 -84 -152 20 19 112
151 124 180 8 19 23 43 33 52 10 10 25 27 34 39 14 21 18 22 42 9 14 -8 91
-83 170 -166 l144 -151 -15 -194 c-8 -107 -17 -206 -21 -220 -3 -15 -7 -46 -9
-70 -2 -24 -8 -98 -14 -164 -6 -66 -20 -228 -31 -360 -12 -132 -28 -298 -35
-370 -8 -71 -16 -166 -19 -210 -3 -44 -10 -154 -17 -245 -6 -91 -12 -223 -15
-295 l-4 -130 -35 -30 c-20 -16 -38 -42 -40 -56 -5 -28 17 -60 48 -72 15 -6
16 -16 11 -94 -4 -48 -11 -89 -15 -91 -5 -2 -4 -12 2 -23 5 -11 9 -39 7 -62
-2 -34 -7 -41 -20 -39 -22 4 -23 -11 -3 -28 17 -14 20 -50 5 -50 -14 0 -13
-27 1 -32 8 -3 10 -42 4 -142 -5 -95 -10 -134 -17 -125 -7 10 -8 9 -3 -6 15
-41 15 -52 8 -125 l-8 -75 -28 47 c-17 28 -33 45 -41 42 -15 -6 -170 127 -180
153 -4 9 -9 13 -13 9 -4 -3 5 -19 19 -34 14 -15 34 -40 44 -57 l19 -30 -41 32
c-57 45 -64 56 -63 94 0 19 0 72 0 118 -1 72 -3 81 -16 71 -8 -7 -15 -20 -15
-29 0 -14 -2 -14 -11 -1 -8 12 -9 11 -5 -5 10 -39 18 -115 13 -115 -4 0 -17
12 -31 27 -14 15 -33 28 -43 29 -15 2 -15 0 4 -15 12 -10 19 -21 16 -25 -4 -3
-1 -6 5 -6 7 0 12 -6 12 -13 0 -8 16 -36 35 -63 19 -27 35 -55 35 -63 0 -15
125 -259 213 -417 l57 -101 0 -89 c0 -108 -9 -164 -24 -164 -7 0 -44 35 -84
78 -103 112 -120 132 -149 179 -29 51 -36 54 -22 13 6 -16 16 -30 22 -30 6 0
8 -3 4 -6 -6 -6 7 -32 144 -280 72 -130 89 -168 89 -202 l0 -42 1107 2 1107 3
9 43 c4 23 12 42 16 42 10 0 21 -35 21 -67 l0 -23 375 0 375 0 0 690 c0 398
-4 690 -9 690 -14 0 -21 -28 -8 -34 7 -2 4 -5 -5 -5 -13 -1 -18 7 -18 25 0 25
23 58 33 48 3 -3 6 40 6 95 1 90 0 101 -16 101 -17 1 -17 1 -1 14 16 12 18 32
17 180 -1 106 -5 166 -11 166 -16 0 -78 -39 -133 -85 -92 -76 -251 -185 -269
-185 -15 0 -4 21 14 28 26 10 222 188 243 222 9 14 48 59 87 100 38 41 70 84
70 95 0 14 -28 -8 -97 -78 -100 -99 -150 -138 -191 -152 -22 -6 -23 -5 -17 17
4 12 17 43 28 68 11 25 35 83 54 130 19 47 38 87 42 90 16 10 52 92 47 106 -3
8 -2 13 3 10 10 -7 21 17 21 45 0 11 4 17 10 14 5 -3 7 0 5 7 -3 8 16 59 42
114 46 95 48 103 51 199 2 55 2 98 -1 95 -2 -3 -24 -61 -47 -130 -39 -113 -94
-237 -279 -622 -33 -69 -66 -130 -72 -133 -7 -5 -9 -1 -5 11 8 27 75 348 87
419 6 33 18 92 28 130 22 86 32 133 72 355 45 249 50 281 47 308 -2 20 -9 13
-35 -39 -32 -62 -51 -165 -80 -434 -3 -27 -11 -86 -19 -130 -8 -44 -19 -107
-25 -140 -6 -33 -14 -64 -19 -69 -5 -4 -4 9 0 31 29 127 81 602 86 773 2 102
6 258 8 348 2 89 1 162 -3 162 -18 0 -102 -317 -171 -645 -17 -82 -40 -185
-51 -229 -11 -43 -18 -81 -15 -83 5 -6 44 75 77 162 10 28 28 64 40 80 l20 30
-6 -115 c-4 -63 -20 -201 -36 -307 -24 -166 -35 -210 -79 -330 -28 -76 -58
-158 -67 -183 -9 -25 -20 -49 -24 -54 -21 -23 0 579 27 784 8 63 21 169 29
235 17 133 27 191 55 310 22 95 71 304 75 325 14 63 38 140 60 187 15 30 28
65 31 76 6 34 64 211 73 225 5 8 21 12 36 10 35 -4 65 -51 114 -178 18 -47 41
-105 52 -130 18 -44 18 4 19 2483 l0 2529 -62 76 c-211 261 -585 645 -818 842
-590 497 -1343 921 -2145 1207 -906 322 -1776 458 -2730 426z m815 -1097 c843
-102 1653 -391 2370 -848 496 -316 971 -745 1321 -1193 575 -738 956 -1625
1109 -2585 58 -364 76 -717 60 -1184 -11 -309 -15 -356 -31 -356 -4 0 -25 11
-45 25 -39 27 -73 31 -105 15 -15 -9 -26 -6 -52 14 -85 65 -307 162 -762 333
-378 142 -610 237 -853 345 -170 76 -207 97 -225 124 -12 18 -51 68 -85 111
-35 43 -98 121 -140 173 -43 52 -123 145 -180 208 -97 108 -161 195 -212 289
l-23 42 32 49 c17 28 31 54 30 58 -4 26 2 64 10 59 12 -7 21 7 26 42 6 47 9
57 25 70 13 11 13 12 0 13 -13 0 -13 1 0 11 11 8 12 12 3 16 -9 3 -9 10 3 28
9 13 13 28 10 34 -4 5 0 16 8 23 8 9 13 33 12 62 -1 26 2 50 6 52 5 3 8 25 8
49 0 24 5 47 10 50 8 5 7 11 -1 21 -6 8 -8 22 -4 31 4 10 9 99 12 198 4 175 5
180 29 202 36 33 53 82 58 165 5 66 4 68 -3 20 -10 -61 -34 -102 -59 -102 -16
0 -20 15 -30 103 -19 163 -17 190 18 225 21 22 30 40 30 63 0 35 36 119 50
119 5 0 12 -17 15 -37 4 -21 10 -49 15 -63 7 -20 9 -16 10 25 0 28 7 79 15
115 8 36 14 85 13 110 l-1 45 -7 -45 c-5 -27 -6 -11 -3 42 5 79 3 87 -15 97
-37 20 -54 12 -108 -46 -52 -56 -54 -57 -69 -38 -19 24 -13 60 21 130 32 67
44 178 44 405 0 543 -116 883 -384 1126 -217 196 -532 357 -801 410 -107 20
-298 20 -398 -1 -269 -56 -566 -218 -780 -424 -129 -125 -163 -169 -233 -308
-70 -137 -119 -291 -151 -472 -21 -123 -26 -179 -27 -356 0 -115 2 -257 6
-315 4 -58 5 -113 2 -123 -5 -17 -7 -17 -30 -2 -24 16 -24 15 6 -38 35 -62 35
-63 14 -71 -19 -7 -134 72 -134 93 -1 14 -2 14 -10 0 -5 -9 -14 -66 -19 -126
-9 -98 -8 -117 10 -174 10 -35 24 -73 29 -84 5 -11 11 -36 13 -55 2 -19 5 -2
5 38 1 40 6 72 12 72 6 0 10 -4 10 -9 0 -4 11 -24 24 -43 15 -23 25 -54 28
-92 4 -45 11 -63 33 -86 28 -29 29 -32 26 -132 -1 -57 -5 -105 -7 -108 -13
-13 -41 24 -61 79 -12 35 -25 66 -29 69 -4 4 -4 -2 1 -13 4 -11 14 -48 21 -83
16 -73 36 -115 64 -135 17 -12 20 -29 25 -153 4 -76 6 -147 6 -156 -2 -66 5
-164 12 -174 3 -6 8 -42 11 -79 2 -37 9 -72 14 -77 6 -6 8 -17 5 -24 -3 -8 -1
-20 4 -27 5 -6 9 -24 8 -39 0 -16 3 -28 8 -28 4 0 5 -10 2 -21 -5 -16 -4 -19
6 -14 9 6 11 2 6 -14 -3 -12 1 -27 9 -35 8 -8 11 -22 8 -30 -4 -9 -1 -16 6
-16 7 0 10 -8 7 -20 -3 -10 1 -24 9 -31 8 -6 14 -20 14 -30 0 -10 5 -21 10
-24 6 -3 10 -17 10 -29 0 -13 6 -29 14 -36 8 -6 13 -17 10 -24 -3 -7 2 -19 11
-26 8 -7 15 -20 15 -30 0 -9 9 -25 20 -35 11 -10 20 -22 20 -28 0 -5 12 -25
28 -43 15 -19 40 -50 55 -69 l29 -35 -26 -42 c-15 -24 -55 -84 -89 -135 -34
-51 -127 -195 -207 -322 l-144 -230 -95 -22 c-53 -12 -188 -46 -301 -76 -113
-31 -214 -57 -225 -60 -17 -4 -27 9 -59 75 l-39 80 21 27 c52 66 127 311 143
468 14 136 -9 452 -42 587 -31 130 -136 334 -304 590 -203 309 -234 360 -343
555 -200 359 -315 506 -488 626 -102 70 -282 131 -374 128 -37 -1 -58 6 -115
40 -73 43 -164 76 -300 107 -126 30 -434 27 -575 -4 -249 -56 -517 -173 -685
-299 -320 -240 -455 -473 -620 -1071 -21 -72 -35 -139 -31 -147 3 -9 -29 -52
-88 -117 -152 -169 -223 -230 -325 -281 -87 -44 -91 -45 -92 -24 -7 161 52
290 181 395 30 25 73 53 95 63 48 22 37 24 -26 5 -66 -20 -125 -52 -192 -103
-73 -57 -126 -123 -174 -220 -30 -60 -38 -88 -40 -142 -1 -38 1 -56 5 -43 4
13 7 -33 8 -102 0 -70 4 -129 7 -132 3 -4 29 12 58 35 29 23 54 39 57 36 3 -2
-26 -37 -64 -77 -38 -40 -91 -106 -118 -146 -53 -77 -70 -87 -41 -22 27 61 12
58 -34 -6 -73 -101 -111 -205 -111 -299 0 -46 26 -127 50 -153 l21 -22 -21
-40 c-33 -65 -51 -150 -51 -245 0 -104 18 -181 65 -282 33 -68 34 -73 21 -110
-20 -55 -20 -289 -1 -296 9 -4 17 -26 21 -54 3 -26 15 -106 27 -178 11 -71 21
-161 22 -200 1 -63 -3 -76 -36 -136 -21 -36 -43 -71 -50 -76 -21 -17 -58 -25
-82 -19 -41 10 -62 99 -33 141 8 11 22 34 32 50 l17 30 -26 -30 c-24 -27 -26
-28 -26 -9 0 12 15 53 34 90 l35 69 -39 -43 c-21 -24 -48 -62 -59 -85 -21 -45
-41 -146 -41 -213 0 -22 -3 -44 -7 -47 -19 -20 -63 62 -64 122 0 29 -2 32 -9
16 -13 -31 -11 -88 4 -133 9 -25 11 -44 5 -47 -5 -4 -9 -5 -9 -3 0 2 -15 49
-34 103 -60 176 -122 527 -152 855 -21 230 -24 756 -6 945 111 1121 569 2192
1307 3055 365 427 740 758 1222 1079 907 602 1782 911 2778 980 199 14 735 6
895 -13z m1241 -585 c168 -44 346 -121 482 -208 350 -224 520 -472 587 -854
32 -187 46 -445 32 -622 -7 -83 -17 -156 -22 -161 -6 -6 -21 -2 -41 13 -29 21
-30 22 -20 3 15 -28 14 -72 -2 -72 -7 0 -36 16 -65 35 l-52 36 0 71 0 71 23
-19 22 -18 -22 24 c-19 20 -30 23 -86 21 -63 -2 -64 -2 -77 28 -7 17 -18 36
-26 42 -8 6 -2 -13 13 -42 16 -30 30 -51 31 -47 2 5 28 8 58 8 l54 0 0 -70 0
-70 -37 -1 c-21 -1 -30 -3 -20 -6 15 -4 17 -12 13 -41 -9 -64 -15 -138 -9
-119 4 15 11 17 31 12 15 -3 31 -10 35 -14 11 -11 -46 -160 -102 -266 -26 -50
-77 -131 -114 -182 l-67 -91 -68 -8 c-91 -9 -274 10 -346 36 -31 12 -56 24
-54 26 2 2 35 -2 73 -8 84 -13 220 -5 292 17 69 21 140 70 183 127 35 46 83
155 94 214 4 16 -4 0 -17 -36 -29 -79 -62 -145 -94 -186 -90 -118 -327 -164
-522 -100 -68 23 -92 36 -131 75 -26 26 -49 59 -52 74 -5 25 -2 24 48 -23 30
-28 80 -63 111 -78 54 -25 67 -27 198 -27 124 0 147 3 199 24 104 41 156 112
218 294 27 78 32 107 32 192 1 136 -15 187 -77 248 -67 66 -94 77 -210 89
-165 18 -507 -15 -585 -56 -27 -14 -31 -14 -36 1 -9 23 -18 10 -55 -72 -17
-38 -31 -65 -31 -59 0 18 51 138 68 157 8 9 13 19 11 22 -10 9 -46 -7 -58 -28
-17 -26 -43 -135 -36 -147 10 -16 -7 -39 -33 -44 -15 -3 -65 -6 -111 -8 l-84
-3 -28 50 c-16 28 -29 55 -28 60 0 6 9 -7 20 -27 30 -58 47 -50 77 39 20 59
42 233 29 233 -3 0 -13 -24 -21 -54 -26 -88 -88 -144 -113 -102 -11 17 -47 36
-71 36 -11 0 -25 6 -31 14 -21 26 -167 41 -389 41 -137 0 -215 -4 -220 -10 -4
-6 -27 -23 -52 -37 -58 -33 -131 -98 -149 -132 -10 -18 -22 -26 -41 -26 -15 0
-41 -3 -58 -6 -29 -6 -30 -9 -43 -88 -11 -75 -26 -105 -53 -106 -15 0 4 112
25 149 l21 36 -25 -29 -25 -29 -7 67 c-4 37 -5 147 -2 244 10 375 104 706 262
927 67 94 268 282 381 358 165 110 346 187 532 228 116 25 349 20 463 -10z
m-726 -1586 l140 -14 33 -35 c32 -35 45 -68 20 -49 -17 12 -91 30 -203 48 -49
9 -115 20 -145 25 -30 6 -127 9 -214 9 -108 -2 -161 2 -164 9 -2 6 13 12 35
15 93 9 370 5 498 -8z m-731 -212 c-14 -104 -11 -99 -51 -101 -20 -2 -40 -5
-45 -8 -9 -6 -10 55 -2 109 7 37 7 37 55 37 l48 0 -5 -37z m1183 -68 c12 -8
29 -39 39 -68 9 -28 34 -97 56 -151 21 -54 53 -142 70 -194 26 -83 36 -101 79
-143 51 -50 131 -102 290 -188 216 -118 285 -206 305 -391 6 -53 4 -58 -21
-78 -15 -12 -34 -18 -43 -15 -31 11 -71 56 -111 123 -39 66 -51 75 -126 103
-22 8 -102 45 -177 82 -144 70 -164 90 -114 113 45 20 59 55 50 120 -7 53 -8
55 -13 22 -5 -29 -10 -35 -29 -33 -40 5 -91 46 -98 79 l-6 31 -24 -24 c-53
-53 -171 -83 -238 -61 -17 6 -48 27 -68 46 l-38 36 0 -26 c0 -29 -42 -76 -77
-84 -35 -9 -73 4 -73 25 0 24 51 93 90 121 17 12 32 21 34 19 2 -2 8 -13 13
-23 10 -17 11 -16 18 12 8 37 1 52 -25 52 -10 0 -22 5 -25 11 -4 5 -18 14 -31
19 l-23 9 44 93 c24 51 58 145 76 208 40 139 64 170 131 170 24 0 53 -7 65
-15z m1253 -30 c33 -17 40 -28 13 -18 -23 8 -60 33 -50 33 5 0 21 -7 37 -15z
m60 -40 c7 -9 8 -15 2 -15 -5 0 -12 7 -16 15 -3 8 -4 15 -2 15 2 0 9 -7 16
-15z m-2493 -67 c-3 -8 -6 -5 -6 6 -1 11 2 17 5 13 3 -3 4 -12 1 -19z m-2094
-59 c122 -62 250 -184 356 -343 26 -39 116 -190 201 -336 84 -146 163 -281
175 -300 27 -43 65 -117 65 -126 0 -15 -39 29 -50 56 -7 16 -18 31 -26 34 -20
8 -18 0 16 -49 22 -32 30 -54 28 -80 l-2 -35 -33 33 c-18 17 -33 36 -33 41 0
6 -11 21 -24 35 -14 15 -55 85 -92 156 -37 72 -71 135 -77 140 -7 7 -8 6 -3
-2 4 -7 5 -13 2 -13 -3 0 -17 20 -31 44 -14 24 -33 50 -42 58 -14 11 -13 8 2
-15 10 -15 16 -29 14 -32 -2 -2 -31 43 -63 101 -33 57 -60 103 -62 101 -5 -4
90 -190 147 -287 147 -249 199 -357 167 -345 -24 10 -102 139 -187 310 -47 94
-87 179 -88 190 -6 33 -70 140 -83 137 -6 -1 -9 2 -6 7 4 5 -4 20 -17 33 -13
13 -36 40 -51 61 -16 21 -43 54 -62 72 -26 27 -30 34 -17 39 13 5 13 9 2 23
-12 14 -11 15 11 8 35 -11 56 -29 130 -111 36 -40 67 -71 69 -68 6 6 -68 95
-131 157 -56 55 -77 70 -62 45 5 -7 -8 -3 -27 9 -31 20 -34 27 -35 69 0 41 -5
51 -37 80 -39 36 -47 50 -22 40 36 -14 -30 54 -80 82 -43 24 -1 10 58 -19z
m2155 -177 c60 -157 177 -232 361 -232 131 0 243 39 328 112 l37 33 -20 -34
c-23 -41 -102 -106 -146 -120 -58 -19 -204 -31 -260 -21 -200 34 -291 118
-343 315 -8 33 -15 82 -14 110 l1 50 18 -80 c10 -44 27 -104 38 -133z m-3518
-23 c0 -5 -4 -9 -10 -9 -5 0 -10 7 -10 16 0 8 5 12 10 9 6 -3 10 -10 10 -16z
m-7 -20 c7 -1 18 0 26 1 11 1 10 -2 -3 -15 -9 -9 -21 -26 -28 -38 -11 -22 -11
-22 11 -3 23 20 29 10 9 -14 -7 -8 4 0 24 19 53 48 56 34 7 -25 l-41 -49 42
43 c23 24 45 40 49 35 8 -12 21 -10 50 6 14 8 21 9 17 2 -10 -16 5 -13 25 5
16 15 17 14 12 -5 -7 -27 1 -27 26 0 19 20 24 8 8 -17 -4 -7 0 -11 11 -10 10
0 17 -6 16 -15 -1 -11 5 -15 17 -12 26 7 24 -1 -10 -40 -29 -32 -29 -33 -7
-32 13 0 30 6 39 14 32 26 19 -21 -15 -57 l-33 -34 61 41 c56 37 84 49 84 36
0 -16 -158 -137 -185 -141 -19 -3 -19 10 0 26 24 20 10 23 -24 5 -17 -8 -31
-12 -31 -9 0 4 -9 -1 -19 -10 -19 -17 -19 -17 -17 7 3 25 2 25 -21 10 -14 -9
-37 -17 -51 -18 -15 -1 -35 -5 -44 -9 -21 -10 -19 16 5 42 9 10 14 22 11 25
-4 4 -2 13 4 20 7 8 9 17 6 20 -7 7 -44 -13 -60 -32 -6 -8 -16 -11 -22 -7 -7
4 -10 2 -6 -7 3 -8 -1 -14 -10 -14 -30 0 -23 25 21 76 24 28 43 51 40 51 -2 0
-21 -13 -42 -30 -40 -31 -55 -37 -55 -20 0 12 41 73 53 78 4 2 7 10 7 17 0 11
-6 11 -32 -2 -73 -36 -69 -36 -62 -6 8 32 44 87 51 79 3 -3 14 6 25 19 17 22
21 23 34 10 9 -8 21 -16 27 -16z m4274 -186 c-3 -21 -11 -67 -18 -103 -7 -36
-9 -78 -5 -94 10 -39 54 -78 80 -70 15 4 12 -1 -9 -15 -16 -12 -35 -21 -40
-21 -6 0 -51 -25 -100 -55 -50 -30 -100 -55 -113 -55 -40 0 -130 -95 -167
-177 -29 -63 -67 -104 -82 -90 -2 3 -9 20 -13 39 -5 18 -20 72 -34 120 -13 48
-23 105 -22 125 7 93 74 166 232 252 112 61 205 124 248 170 36 37 50 28 43
-26z m-2765 -63 c163 -182 230 -358 263 -697 l6 -63 -32 30 c-18 16 -42 30
-53 32 -27 4 -207 -25 -225 -37 -10 -5 -12 -4 -7 3 4 7 3 12 -3 12 -5 0 -13
-5 -16 -11 -4 -5 -12 -8 -18 -6 -7 2 -21 -3 -32 -12 -18 -15 -19 -15 -6 2 26
33 -11 19 -52 -20 -33 -32 -37 -34 -22 -10 14 22 15 26 3 22 -20 -8 -51 -51
-68 -95 -7 -19 -18 -41 -23 -47 -13 -18 -3 -16 36 7 19 11 72 34 118 51 230
84 428 79 643 -17 45 -20 100 -43 124 -51 64 -23 50 -34 -18 -13 l-60 18 0
-33 c0 -18 7 -49 15 -69 8 -20 13 -36 10 -36 -9 0 -35 73 -35 100 0 15 -8 34
-17 42 -19 16 -64 31 -60 19 1 -3 -3 -7 -8 -8 -6 -1 -9 5 -7 14 3 12 -3 14
-22 11 -14 -3 -26 -1 -26 4 0 5 -4 7 -9 4 -5 -4 -21 -2 -36 4 -78 30 -256 31
-343 3 -15 -4 -15 -3 -2 6 22 16 4 14 -79 -9 -123 -34 -210 -89 -253 -159 -19
-31 -22 -33 -26 -16 -5 24 -20 35 -47 34 -18 0 -18 -1 2 -9 15 -6 21 -15 17
-25 -7 -18 -25 -22 -116 -28 -59 -4 -68 -2 -68 12 0 9 -14 32 -31 51 -17 19
-28 30 -25 24 3 -6 -29 6 -72 26 -42 20 -88 41 -101 45 -17 5 -20 9 -11 15 19
12 -93 44 -148 44 -29 -1 -39 2 -30 8 8 6 0 7 -22 3 -20 -4 -30 -3 -23 2 7 5
-5 9 -30 9 -83 2 -228 17 -233 25 -2 4 7 16 21 25 21 14 40 16 103 10 91 -7
295 -55 366 -86 27 -11 51 -19 53 -16 16 15 -53 126 -79 126 -6 0 -5 -7 3 -17
13 -17 12 -17 -6 -2 -33 27 -62 39 -107 45 -40 5 -42 5 -23 -10 11 -8 15 -16
9 -16 -6 0 -23 9 -38 21 -15 12 -45 23 -68 27 l-41 5 24 19 c79 62 162 159
255 298 112 169 148 210 239 278 102 75 269 147 396 171 57 10 103 -14 171
-89z m-1022 55 c0 -19 7 -26 31 -32 l30 -8 -65 -75 c-35 -41 -63 -76 -61 -78
2 -2 36 23 77 56 40 32 86 67 101 77 l28 18 -7 -29 c-4 -16 -17 -42 -29 -59
-12 -16 -26 -37 -30 -45 -8 -13 -6 -13 7 -2 14 11 17 10 20 -3 2 -13 12 -9 45
20 37 31 43 33 51 19 6 -11 17 -15 32 -11 16 4 24 1 27 -14 3 -10 10 -16 15
-13 15 10 -5 -24 -57 -94 -39 -54 -50 -63 -73 -61 -15 2 -37 -2 -49 -9 -17
-10 -25 -9 -37 3 -8 9 -13 22 -10 30 7 17 -7 20 -23 4 -7 -7 -10 -3 -8 15 2
14 6 29 9 34 10 16 -28 10 -56 -9 -29 -21 -43 -24 -33 -9 3 6 -1 10 -9 10 -8
0 -19 7 -24 16 -7 13 -13 14 -31 5 -21 -12 -27 -5 -22 23 3 14 -21 36 -31 30
-6 -4 -8 2 -3 15 6 19 3 20 -23 15 -16 -3 -32 -2 -36 4 -9 15 113 123 175 154
66 34 69 34 69 3z m4095 -491 c22 -15 29 -15 70 -1 25 9 45 12 45 7 0 -13 -56
-50 -75 -50 -25 0 -86 40 -79 51 7 12 11 12 39 -7z m222 -163 c25 -51 -24 -87
-134 -101 -124 -16 -232 11 -248 61 -16 50 31 64 216 64 153 0 153 0 166 -24z
m-5857 -228 c18 -48 8 -57 -18 -19 -33 49 -48 148 -32 206 l13 45 13 -100 c6
-55 17 -115 24 -132z m1022 -106 c-18 -18 -32 -38 -32 -44 0 -7 -4 -15 -10
-18 -6 -3 -7 1 -4 10 6 14 0 16 -36 13 -43 -3 -71 -28 -32 -28 11 0 25 -7 32
-15 10 -13 7 -17 -21 -31 l-34 -15 30 5 30 4 0 -146 c1 -121 5 -161 23 -225
50 -174 110 -241 257 -286 189 -59 401 -23 529 90 25 22 46 36 46 29 0 -6 5
-8 12 -4 6 4 -1 -9 -16 -29 -79 -103 -267 -165 -471 -155 -77 4 -90 3 -55 -4
71 -15 255 -3 330 21 35 11 66 18 69 16 7 -8 -127 -65 -181 -76 -72 -16 -259
-6 -328 17 -49 16 -71 34 -203 168 -81 83 -166 178 -188 211 -40 58 -41 62
-36 123 3 35 7 66 11 69 3 3 17 -3 32 -13 15 -11 40 -28 57 -39 25 -18 34 -37
58 -123 38 -135 75 -206 141 -268 49 -46 143 -95 181 -94 7 1 -9 9 -34 19 -63
25 -133 76 -163 120 -65 94 -108 238 -127 422 -7 67 -16 113 -19 103 -8 -22
-20 55 -20 127 l0 49 48 1 c26 0 67 6 92 13 66 19 67 19 32 -17z m2198 -11
c19 -8 26 -20 28 -49 l3 -37 -43 2 -43 1 38 4 c20 2 35 8 32 13 -3 4 -23 6
-44 4 -44 -5 -46 -4 -55 49 l-7 39 33 -7 c18 -4 44 -12 58 -19z m2230 -29 c0
-7 -7 -20 -15 -30 -17 -23 -43 -16 -75 18 -26 28 -21 52 12 57 25 4 78 -27 78
-45z m-4650 -26 c0 -57 -1 -59 -31 -70 -36 -13 -59 -1 -59 30 0 16 73 99 86
99 2 0 4 -27 4 -59z m-898 -44 c-40 -42 -138 -101 -152 -92 -17 11 4 37 67 82
35 25 70 42 87 42 l30 1 -32 -33z m3266 -134 c-2 -65 1 -108 7 -108 5 0 12 15
16 33 4 18 10 36 13 39 17 18 -42 -193 -69 -248 -10 -19 -29 -49 -43 -68 -14
-19 -26 -44 -27 -55 -1 -12 -5 -19 -9 -18 -11 5 -65 -49 -63 -62 1 -6 -6 -10
-15 -8 -9 1 -20 -3 -24 -9 -4 -8 -3 -9 4 -5 7 4 12 5 12 2 0 -11 -62 -37 -76
-32 -8 3 -13 2 -10 -3 8 -13 -74 -31 -139 -31 -60 0 -156 29 -186 56 -28 25
-19 26 42 3 44 -17 71 -20 149 -17 81 3 105 8 155 32 152 75 240 246 252 494
3 61 8 112 10 112 3 0 3 -48 1 -107z m-3211 43 c-27 -25 -58 -52 -70 -60 -21
-16 -21 -16 13 -10 l35 6 -38 -39 c-36 -37 -116 -87 -126 -78 -2 3 2 12 10 22
12 15 12 16 -1 9 -8 -5 -1 4 15 19 17 16 23 25 13 22 -14 -5 -18 -1 -18 17 0
13 6 28 13 34 26 22 173 101 187 101 8 1 -7 -19 -33 -43z m2183 9 c34 -18 49
-43 80 -140 35 -110 86 -246 123 -327 59 -130 179 -222 380 -293 68 -24 73
-40 42 -155 -15 -52 -32 -120 -39 -150 -61 -252 -113 -371 -252 -580 -99 -149
-163 -209 -256 -239 -62 -21 -263 -15 -360 9 -220 56 -508 194 -744 357 -85
59 -214 180 -214 201 0 5 -7 15 -15 22 -8 7 -24 44 -36 82 l-21 71 37 53 c20
29 56 73 79 98 22 24 43 48 45 53 37 86 82 129 144 137 23 4 99 11 168 16 222
18 346 67 459 180 53 53 76 87 122 182 64 130 114 268 123 342 11 83 66 117
135 81z m1087 -17 c-3 -7 -5 -2 -5 12 0 14 2 19 5 13 2 -7 2 -19 0 -25z
m-1467 -79 c0 -6 -4 -7 -10 -4 -5 3 -10 11 -10 16 0 6 5 7 10 4 6 -3 10 -11
10 -16z m-1873 -89 c-4 -17 -2 -20 15 -14 19 6 19 5 1 -22 -16 -25 -16 -27 -1
-22 13 5 15 3 11 -9 -5 -13 -3 -14 18 -3 23 13 24 12 7 -7 -10 -11 -18 -24
-18 -30 0 -6 -7 -16 -15 -23 -26 -21 -17 -33 11 -15 15 9 24 12 20 7 -3 -6 -1
-12 5 -14 12 -4 -22 -81 -41 -93 -5 -3 -10 -11 -10 -17 0 -6 12 -2 28 7 27 18
27 18 10 -2 -10 -11 -18 -24 -18 -29 -1 -5 -11 -21 -23 -35 -26 -31 -108 -102
-88 -76 9 11 11 21 5 25 -15 12 -15 33 0 57 13 20 13 25 1 35 -22 18 -19 87 6
121 12 18 16 29 8 29 -9 0 -8 4 1 15 10 13 9 15 -9 15 -35 0 -25 34 24 79 50
46 60 50 52 21z m-557 -95 c0 -2 -6 -8 -13 -14 -10 -8 -14 -7 -14 2 0 8 6 14
14 14 7 0 13 -1 13 -2z m7570 -77 c24 -35 53 -72 65 -83 25 -24 36 -72 66
-300 19 -135 22 -203 21 -435 -2 -281 3 -364 19 -339 6 10 9 8 9 -9 0 -13 40
-106 89 -206 92 -190 182 -342 188 -316 2 8 -15 69 -38 135 -22 66 -43 143
-46 172 -5 48 -3 54 25 82 46 47 91 43 267 -24 80 -30 179 -64 220 -75 90 -25
339 -79 343 -75 2 2 -10 11 -28 20 -17 9 -87 69 -153 133 l-122 116 113 -115
c61 -63 112 -117 112 -121 0 -18 -301 64 -484 133 -70 27 -134 49 -141 49 -8
0 -16 4 -19 9 -3 5 -37 119 -75 252 -78 273 -146 477 -197 588 -36 77 -37 111
-4 111 21 0 65 -50 211 -241 341 -444 524 -649 759 -846 69 -58 140 -121 158
-141 19 -21 32 -29 32 -20 0 8 -55 66 -122 129 -206 193 -566 579 -540 579 5
0 47 -17 93 -39 140 -64 646 -263 957 -376 384 -139 592 -228 662 -284 l24
-19 -26 -49 c-28 -51 -77 -203 -103 -315 -34 -150 -115 -603 -135 -758 -12
-91 -27 -205 -34 -255 l-13 -90 -2 222 c-1 308 -38 561 -102 700 -10 23 -19
44 -19 47 0 14 -56 91 -68 94 -8 1 -11 -2 -7 -8 3 -5 2 -18 -4 -27 -6 -13 -4
-29 8 -53 11 -23 17 -65 19 -125 1 -49 7 -105 12 -125 12 -48 36 -214 54 -390
25 -234 29 -300 20 -300 -5 0 -22 27 -38 60 -17 33 -32 58 -34 56 -2 -3 4 -42
12 -88 19 -100 21 -212 5 -291 -12 -57 -29 -77 -29 -34 0 29 -10 43 -37 51
-12 4 -31 21 -41 39 -10 18 -44 75 -75 127 -66 111 -106 163 -107 139 0 -9 15
-63 34 -121 19 -57 37 -120 41 -140 l7 -35 -119 -7 c-199 -11 -442 -36 -583
-60 -74 -13 -136 -22 -138 -21 -1 1 7 24 19 51 11 27 80 220 151 429 72 209
141 398 154 420 12 22 37 75 54 118 24 60 28 81 20 96 -5 11 -10 31 -10 46 0
33 -36 56 -300 190 -219 111 -431 234 -437 252 -3 7 10 14 29 17 70 12 361 26
539 26 l187 0 4 50 c3 44 0 51 -17 55 -363 82 -537 128 -670 176 -33 12 -82
30 -110 40 -93 34 -145 17 -145 -46 0 -66 47 -262 68 -283 51 -51 312 -205
555 -328 147 -74 267 -140 267 -146 0 -40 -184 -593 -340 -1023 -204 -562
-242 -663 -319 -857 -10 -27 -24 -40 -16 -15 2 6 43 136 90 287 47 151 122
381 167 510 160 469 346 1026 353 1056 l6 31 -236 118 c-216 107 -449 246
-484 289 -13 15 -16 13 -39 -24 -21 -36 -28 -41 -50 -35 -14 3 -44 19 -66 35
-70 49 -266 260 -298 321 -20 38 -217 326 -231 337 -7 5 -51 31 -99 56 l-86
47 -31 -44 c-42 -61 -161 -268 -161 -279 0 -14 -22 -5 -34 15 -7 12 -5 26 8
54 10 21 20 46 22 56 8 43 18 64 42 90 30 32 38 72 20 95 -11 15 -11 15 3 4
14 -10 18 -10 23 3 3 10 -1 15 -12 15 -10 0 -13 3 -7 8 10 7 17 27 18 50 0 6
4 12 8 12 5 0 6 7 3 15 -5 13 75 250 81 243 2 -2 -1 -25 -5 -53 -10 -58 -13
-271 -4 -262 3 3 7 57 9 119 5 165 21 237 80 373 129 292 207 490 209 526 0
22 4 39 7 39 3 0 26 -28 49 -62z m-6847 -65 c-16 -38 -180 -231 -248 -293
l-28 -25 7 30 c4 17 16 39 25 50 10 11 20 25 22 31 2 7 39 49 81 95 43 46 94
106 115 134 42 56 55 45 26 -22z m-743 48 c0 -5 -33 -54 -74 -110 -41 -56 -91
-131 -111 -166 -38 -68 -62 -85 -52 -37 10 51 27 82 43 82 10 0 15 3 11 6 -3
3 -1 11 4 18 5 6 36 47 68 91 79 107 111 141 111 116z m803 -184 c-10 -20 -21
-37 -25 -37 -4 0 -8 -6 -8 -12 0 -14 -37 -70 -97 -150 -31 -40 -94 -88 -117
-88 -2 0 -3 15 -1 34 3 33 35 83 137 218 43 57 76 84 64 52 -12 -31 6 -34 31
-4 32 39 37 34 16 -13z m4617 -40 c0 -7 -7 -22 -15 -33 -13 -17 -14 -16 -4 14
11 33 19 41 19 19z m-2104 -27 c26 -6 85 -11 131 -11 85 0 92 -4 77 -42 -4
-12 -19 -11 -102 6 -85 17 -192 57 -192 73 0 2 8 0 19 -5 10 -6 40 -15 67 -21z
m-2507 -58 c-13 -34 -48 -94 -63 -107 -21 -18 -56 -73 -56 -87 0 -8 -12 -25
-26 -39 -24 -22 -26 -22 -16 -3 6 12 9 24 6 27 -12 12 116 217 137 217 5 0 8
3 8 8 -3 16 1 23 11 17 6 -4 5 -16 -1 -33z m150 -29 c-10 -28 -68 -123 -74
-123 -12 0 3 47 20 65 11 12 28 36 37 53 21 39 31 42 17 5z m1 -62 c-10 -20
-4 -26 23 -22 4 0 7 -2 7 -6 0 -15 -45 -93 -53 -93 -5 0 -5 6 -1 13 4 6 -8 -1
-26 -18 -23 -21 -30 -24 -22 -10 5 11 9 23 9 26 -3 12 67 151 71 140 2 -5 -2
-19 -8 -30z m60 9 c-6 -11 -13 -20 -16 -20 -2 0 0 9 6 20 6 11 13 20 16 20 2
0 0 -9 -6 -20z m-1152 -53 c-20 -18 -60 -61 -89 -97 -68 -85 -76 -92 -53 -51
23 42 165 194 173 186 3 -4 -11 -21 -31 -38z m120 -41 c-13 -19 -24 -33 -26
-31 -5 4 37 65 44 65 2 0 -6 -15 -18 -34z m3661 -40 c13 -55 14 -132 1 -101
-7 16 -9 11 -9 -21 -1 -23 -7 -47 -15 -53 -11 -9 -15 -3 -21 35 -3 25 -3 64 1
87 6 37 10 64 13 90 3 23 20 1 30 -37z m676 -3 c-14 -94 -92 -314 -117 -329
-14 -9 -11 1 37 124 20 51 46 129 58 172 12 44 24 80 26 80 2 0 0 -21 -4 -47z
m-648 -5 c-3 -8 -6 -5 -6 6 -1 11 2 17 5 13 3 -3 4 -12 1 -19z m-2694 -51 c-4
-8 -26 -34 -47 -58 -35 -40 -37 -41 -20 -10 20 35 59 81 69 81 3 0 2 -6 -2
-13z m2606 -105 c-1 -31 -4 -46 -6 -32 -3 14 -10 28 -16 32 -7 4 -7 11 2 22 7
9 11 23 7 31 -3 9 -2 13 4 10 6 -3 9 -32 9 -63z m647 -301 c-3 -5 1 -26 10
-47 19 -45 42 -132 41 -156 -1 -29 -26 -7 -37 32 -20 73 -31 151 -25 169 3 11
1 22 -5 26 -5 3 -10 11 -10 18 0 6 7 1 16 -11 8 -12 13 -26 10 -31z m674 42
c0 -5 -9 -19 -20 -33 -11 -14 -41 -56 -67 -95 -47 -70 -457 -491 -500 -514
-20 -10 -19 -5 13 63 60 125 63 259 10 364 -14 28 -26 55 -26 60 0 5 39 21 88
35 269 81 338 100 404 112 90 16 98 17 98 8z m-3540 -238 c7 -8 9 -15 4 -15
-4 0 -1 -6 8 -12 9 -7 19 -24 23 -38 l6 -25 -22 25 c-12 14 -27 24 -34 22 -7
-1 -16 5 -19 14 -5 14 -4 15 9 4 17 -15 19 -7 5 21 -13 23 2 26 20 4z m2789
-254 c-22 -91 -59 -158 -80 -145 -5 3 -9 1 -9 -5 0 -12 -59 -55 -67 -48 -10
11 17 73 73 167 30 51 65 114 77 139 22 46 22 46 25 16 2 -16 -6 -72 -19 -124z
m-3109 85 c0 -3 -4 -8 -10 -11 -5 -3 -10 -1 -10 4 0 6 5 11 10 11 6 0 10 -2
10 -4z m-1266 -185 c-1 -2 4 -10 12 -19 14 -14 14 -16 0 -24 -10 -5 -13 -14
-9 -21 5 -7 8 -29 9 -49 1 -34 0 -36 -12 -20 -7 9 -14 26 -15 37 -1 17 -2 16
-9 -5 -7 -19 -9 -10 -8 35 2 81 6 97 23 82 7 -7 11 -14 9 -16z m1008 -18 c22
-20 24 -72 3 -99 -8 -10 -15 -15 -15 -10 0 5 -7 3 -15 -4 -12 -10 -15 -9 -15
4 0 10 -5 14 -11 10 -9 -5 -10 8 -7 46 3 29 11 56 19 61 19 12 20 11 41 -8z
m3515 -95 c8 -9 29 -20 46 -24 17 -3 40 -18 51 -31 10 -14 33 -32 50 -40 30
-13 28 -14 -29 -7 -57 6 -242 58 -257 73 -4 4 20 23 55 44 53 31 62 34 66 19
1 -9 10 -25 18 -34z m3552 -51 c75 -51 159 -103 186 -117 l48 -24 27 33 28 33
98 -67 c56 -38 204 -119 337 -184 l238 -116 -6 -39 c-8 -55 -193 -606 -255
-761 -29 -71 -78 -200 -110 -285 -32 -85 -84 -220 -115 -300 -207 -528 -184
-471 -249 -613 -20 -42 -36 -82 -36 -87 0 -14 -17 -12 -23 3 -3 6 -6 2 -6 -10
-1 -12 -5 -25 -11 -28 -5 -3 -7 0 -4 9 4 10 -4 16 -27 21 -17 4 -27 10 -22 14
12 8 12 54 -1 63 -6 4 -14 2 -18 -5 -5 -9 -12 -9 -25 -1 -32 19 -109 3 -96
-20 3 -6 -6 0 -20 13 -15 14 -27 29 -27 35 0 6 5 4 10 -4 5 -8 10 -11 10 -6 0
5 6 3 14 -3 12 -10 15 -3 18 36 5 52 0 76 -12 68 -5 -3 -11 -1 -15 4 -3 6 -12
8 -20 5 -8 -4 -12 -10 -9 -15 3 -5 -2 -9 -10 -9 -14 0 -15 27 -2 49 7 11 -13
9 -32 -2 -13 -9 -45 16 -35 27 4 3 -3 6 -15 6 -18 0 -20 4 -13 23 9 24 4 47
-10 47 -4 0 -6 -7 -3 -15 5 -11 2 -13 -11 -8 -15 5 -17 2 -12 -19 5 -18 3 -25
-9 -25 -11 0 -14 7 -10 22 9 33 -4 37 -29 8 l-22 -26 -7 52 c-4 32 -15 60 -27
72 -15 15 -18 24 -10 32 8 8 11 6 11 -6 0 -22 16 -22 24 0 6 15 -8 32 -26 33
-5 0 -8 10 -8 22 0 21 0 21 15 2 8 -10 15 -17 15 -14 8 36 7 40 -12 40 -17 0
-18 3 -8 15 11 14 7 19 -12 16 -13 -2 -9 17 5 22 9 4 8 8 -3 16 -8 6 -10 11
-5 11 6 0 10 14 10 30 0 31 -9 40 -18 18 -3 -8 -6 -6 -6 5 -1 9 4 17 9 17 6 0
10 5 10 10 0 6 -5 9 -11 8 -6 -2 -11 21 -13 54 -2 32 -1 56 3 54 3 -2 6 21 7
52 3 244 34 635 90 1117 45 392 67 560 86 648 8 41 13 47 29 42 11 -4 82 -48
158 -98z m-2800 47 c17 -26 33 -61 36 -78 59 -370 72 -470 85 -661 6 -82 13
-151 16 -154 2 -2 4 159 4 358 l0 363 54 -52 53 -51 -3 -217 c-5 -284 -32
-931 -49 -1157 -2 -22 -4 -60 -5 -85 -2 -42 -2 -43 -10 -16 -5 16 -6 34 -3 39
3 6 1 7 -5 3 -6 -3 -13 -2 -17 4 -3 5 0 10 8 10 11 0 13 7 10 21 -6 21 -7 21
-20 4 -7 -11 -13 -14 -13 -6 0 9 -9 11 -30 6 -28 -6 -29 -5 -25 24 4 33 -9 42
-19 14 -3 -10 -13 -29 -21 -43 -11 -19 -15 -21 -15 -7 0 19 -26 23 -33 5 -2
-7 2 -23 10 -35 11 -16 11 -23 2 -29 -7 -4 -9 -3 -6 2 3 6 1 16 -4 24 -8 13
-11 12 -20 -2 -5 -10 -17 -18 -26 -18 -14 0 -14 2 1 19 17 19 17 19 -4 14 -27
-7 -38 -32 -19 -44 8 -5 11 -9 7 -10 -41 -8 -53 -2 -37 17 13 16 13 16 -20 19
-23 2 -24 2 -6 -11 10 -8 15 -14 10 -14 -5 0 -4 -5 3 -12 19 -19 14 -26 -13
-20 -14 2 -25 11 -25 19 0 12 -3 12 -16 -1 -20 -20 -34 -12 -27 14 7 25 -9 26
-30 2 -12 -13 -26 -17 -47 -14 -19 3 -30 0 -30 -7 0 -7 5 -9 10 -6 6 3 10 -1
10 -10 0 -9 -4 -13 -10 -10 -5 3 -10 1 -10 -4 0 -6 -9 -11 -20 -11 -22 0 -27
-16 -8 -22 7 -3 6 -7 -5 -11 -12 -5 -17 -1 -17 13 0 20 -25 50 -42 50 -6 0 -8
-11 -6 -25 6 -31 1 -31 -25 -2 l-19 22 6 -22 c6 -17 3 -23 -8 -23 -9 0 -16 -8
-16 -17 0 -13 -3 -14 -12 -5 -6 6 -11 28 -10 49 l1 38 -12 -35 c-7 -20 -20
-36 -31 -38 -11 -3 -16 0 -12 7 4 6 2 11 -3 11 -6 0 -11 -4 -11 -10 0 -5 -13
-10 -30 -10 -16 0 -30 -4 -30 -10 0 -5 -4 -10 -8 -10 -13 0 -11 33 2 49 9 12
7 12 -14 1 -39 -22 -55 -22 -36 -1 9 10 16 22 16 28 0 6 9 13 20 16 11 3 20
11 20 17 0 9 -5 9 -17 -1 -16 -12 -17 -12 -6 2 21 27 43 131 43 206 0 105 -53
239 -124 316 -23 25 -24 28 -8 33 128 42 187 87 232 178 48 96 58 184 36 304
-10 53 -22 106 -27 117 -8 17 -8 16 -4 -5 5 -22 4 -23 -5 -7 -7 10 -9 25 -6
33 3 9 1 12 -4 9 -6 -3 -10 0 -10 8 0 22 -63 99 -116 141 -41 33 -38 29 17
-25 78 -76 99 -126 99 -234 0 -56 -5 -82 -25 -122 -31 -60 -63 -95 -44 -47 58
152 4 303 -158 437 -62 50 -103 64 -83 27 7 -14 9 -64 6 -143 -4 -85 -2 -108
4 -77 5 25 9 78 9 118 1 39 5 72 9 72 14 0 145 -141 181 -193 30 -45 33 -53
27 -99 -17 -123 -109 -208 -225 -208 -86 0 -84 -8 -79 310 3 151 9 282 12 290
4 8 35 25 69 36 84 29 274 102 314 121 29 13 37 13 82 -2 27 -9 51 -20 53 -25
2 -5 18 -2 37 6 28 12 31 16 21 29 -7 9 -31 24 -54 34 -28 13 -35 20 -21 20
11 1 85 30 165 65 80 35 152 65 162 65 9 1 30 -20 47 -45z m-3487 5 c18 -10
41 -32 77 -75 5 -7 8 -14 6 -16 -3 -2 13 -22 35 -43 40 -39 49 -55 29 -55 -5
0 -7 5 -4 10 3 6 1 10 -4 10 -18 0 -13 -13 14 -36 21 -18 26 -33 31 -98 4 -56
3 -76 -6 -76 -7 0 -10 -7 -6 -15 3 -10 -3 -17 -19 -21 -14 -3 -25 -12 -25 -20
0 -8 -10 -14 -23 -14 -33 0 -202 56 -201 66 1 5 11 70 22 144 12 74 24 161 27
193 7 59 12 65 47 46z m-1816 -56 c-11 -11 -19 6 -11 24 8 17 8 17 12 0 3 -10
2 -21 -1 -24z m850 11 c-4 -9 -9 -15 -11 -12 -3 3 -3 13 1 22 4 9 9 15 11 12
3 -3 3 -13 -1 -22z m-28 -20 c-3 -14 -5 -12 -10 9 -3 19 -2 25 4 19 6 -6 8
-18 6 -28z m3576 -43 c-17 -15 -246 -112 -256 -109 -6 2 17 29 51 61 75 69
139 93 185 70 15 -8 24 -18 20 -22z m1366 3 c-11 -12 -11 -17 -1 -23 9 -6 7
-10 -7 -13 -12 -3 -19 -1 -18 6 3 16 30 56 35 51 2 -3 -2 -12 -9 -21z m-4009
-328 c26 -8 65 -24 87 -35 42 -22 46 -36 17 -75 -14 -19 -16 -19 -85 3 l-70
22 0 50 c0 27 1 49 3 49 1 0 23 -7 48 -14z m-81 -79 c45 -22 67 -57 36 -57 -9
0 -16 -4 -16 -10 0 -5 5 -10 10 -10 6 0 10 -7 10 -15 0 -33 -34 -28 -117 16
-83 44 -108 71 -57 61 19 -3 25 -1 20 7 -4 7 -5 19 -2 28 8 19 52 12 116 -20z
m490 -154 c14 -15 34 -39 45 -52 l20 -25 -31 21 c-31 22 -114 108 -114 118 0
10 53 -31 80 -62z m-706 42 c52 -16 169 -76 199 -103 26 -23 6 -30 -72 -26
-36 2 -58 1 -48 -2 27 -8 10 -24 -26 -24 l-32 0 33 -20 c30 -19 70 -85 58 -97
-2 -3 -19 -12 -37 -21 -26 -13 -37 -29 -52 -72 -10 -30 -24 -58 -30 -62 -8 -5
-5 -8 8 -9 16 0 14 -3 -7 -11 -16 -5 -28 -14 -28 -18 0 -11 -41 -9 -55 2 -5 4
-21 17 -35 28 l-25 19 26 1 c33 0 40 8 27 30 -7 10 -8 25 -3 36 4 11 9 26 9
34 1 10 14 16 39 18 37 3 38 4 22 22 -20 22 -12 40 18 40 19 1 17 5 -16 32
-29 23 -35 33 -25 40 10 7 9 11 -5 19 -17 10 -16 12 5 35 13 13 34 24 48 24
23 0 22 3 -22 46 -27 25 -48 48 -48 50 0 8 25 4 74 -11z m3344 -338 c-40 -109
-136 -203 -217 -214 -54 -7 -81 15 -81 67 l0 38 55 7 c75 9 187 66 227 116 17
21 32 39 34 39 1 0 -7 -24 -18 -53z m-5098 -120 c-7 -37 -10 -91 -8 -122 3
-60 -9 -72 -32 -31 -17 33 -9 119 18 180 12 27 25 47 28 44 3 -3 0 -35 -6 -71z
m3362 23 c-1 -23 -9 -54 -17 -70 -8 -16 -15 -44 -15 -62 l0 -33 -19 24 c-19
25 -44 22 -34 -4 3 -9 -1 -15 -8 -15 -17 0 -80 73 -71 81 4 4 29 14 55 24 47
18 97 67 97 95 0 7 3 10 7 7 3 -4 6 -25 5 -47z m49 -77 c13 -16 12 -17 -3 -4
-17 13 -22 21 -14 21 2 0 10 -8 17 -17z m-236 -23 c10 -11 16 -20 13 -20 -3 0
-13 9 -23 20 -10 11 -16 20 -13 20 3 0 13 -9 23 -20z m3808 5 c-3 -9 -8 -14
-10 -11 -3 3 -2 9 2 15 9 16 15 13 8 -4z m-3603 -80 c5 3 11 1 15 -5 3 -5 -3
-10 -14 -10 -17 0 -21 6 -20 33 2 30 2 30 6 4 2 -15 8 -25 13 -22z m3364 -91
c9 -24 7 -28 -9 -14 -17 14 -20 30 -6 30 5 0 12 -7 15 -16z m-11 -43 c6 -25
-38 -35 -59 -14 -21 21 -17 41 9 45 26 5 43 -6 50 -31z m-3241 -37 c39 -42 52
-64 40 -64 -5 0 -28 23 -51 50 -48 57 -39 69 11 14z m118 -142 c0 -10 -42 33
-52 53 -6 11 4 5 21 -14 17 -19 31 -37 31 -39z m-1875 -26 c16 -16 20 -30 6
-22 -5 3 -12 -1 -15 -10 -3 -8 -11 -12 -17 -9 -6 4 -8 14 -5 22 3 8 1 11 -4 8
-6 -3 -10 -4 -10 -1 0 2 -3 11 -6 20 -7 19 29 14 51 -8z m1945 4 c0 -5 -5 -10
-11 -10 -5 0 -7 5 -4 10 3 6 8 10 11 10 2 0 4 -4 4 -10z m14 -44 c9 -36 57
-90 67 -75 5 9 14 2 28 -21 11 -19 18 -37 16 -41 -3 -4 2 -12 10 -19 8 -7 15
-17 15 -23 0 -5 -12 2 -26 17 -15 14 -36 26 -48 26 -15 1 -28 16 -49 58 -30
61 -41 102 -28 102 5 0 12 -11 15 -24z m6381 -103 c-4 -65 -9 -121 -11 -124
-2 -4 -30 -10 -61 -14 -32 -4 -268 -40 -525 -81 -257 -41 -476 -74 -487 -74
-18 0 -16 12 30 143 28 78 54 146 58 150 18 18 411 76 651 96 69 6 139 13 155
15 17 1 68 4 113 5 l84 1 -7 -117z m-8255 42 c0 -25 -15 -24 -50 6 -34 29 -35
29 -15 45 19 14 22 13 43 -11 12 -14 22 -32 22 -40z m1920 36 c14 -21 17 -32
9 -37 -7 -4 -9 -3 -5 4 3 6 2 13 -4 17 -11 7 -33 45 -26 45 3 0 14 -13 26 -29z
m-273 -33 c-3 -8 -6 -5 -6 6 -1 11 2 17 5 13 3 -3 4 -12 1 -19z m217 -40 c23
-50 30 -82 27 -118 -2 -23 -31 19 -31 45 0 12 -3 25 -7 29 -8 7 -10 16 -19 64
-9 47 2 39 30 -20z m-193 -15 c13 -15 11 -16 -11 -10 -14 4 -40 7 -57 7 -18 0
-33 5 -33 10 0 17 86 12 101 -7z m2166 -18 c0 -8 -4 -12 -9 -9 -5 3 -6 10 -3
15 9 13 12 11 12 -6z m-67 -15 c0 -5 -4 -10 -9 -10 -6 0 -13 5 -16 10 -3 6 1
10 9 10 9 0 16 -4 16 -10z m-2123 -25 c31 -15 48 -31 55 -50 1 -5 7 -9 11 -7
4 1 10 -6 14 -15 4 -10 11 -21 16 -24 5 -3 2 -9 -7 -12 -10 -4 -16 -1 -16 8 0
19 -40 41 -41 23 0 -9 -2 -10 -5 -1 -3 7 -13 9 -22 5 -16 -6 -16 -4 1 21 23
36 21 41 -6 14 -25 -24 -28 -44 -8 -57 9 -5 10 -10 3 -14 -13 -8 -38 32 -33
53 1 7 -2 10 -8 6 -6 -3 -11 -1 -11 5 0 7 7 10 15 6 11 -4 14 1 13 17 -2 22
-38 37 -38 16 0 -5 -4 -9 -10 -9 -5 0 -7 7 -4 15 8 19 43 19 81 0z m316 8 c4
-3 1 -13 -6 -21 -10 -13 -9 -15 5 -9 19 7 44 -26 33 -44 -4 -6 3 -7 19 -3 15
3 26 2 26 -4 0 -19 -28 -20 -58 -2 -20 13 -32 15 -34 8 -2 -6 -10 3 -17 20 -7
17 -11 38 -7 47 6 15 28 20 39 8z m1612 -3 c3 -5 -1 -10 -10 -10 -9 0 -13 5
-10 10 3 6 8 10 10 10 2 0 7 -4 10 -10z m-43 -52 c-7 -7 -10 -5 -7 8 5 29 6
30 12 16 3 -8 1 -18 -5 -24z m138 22 c0 -5 -2 -10 -4 -10 -3 0 -8 5 -11 10 -3
6 -1 10 4 10 6 0 11 -4 11 -10z m-1613 -67 c0 -10 -5 -24 -11 -32 -9 -12 -8
-13 5 -9 11 4 26 -3 42 -21 33 -38 42 -67 22 -75 -15 -5 -19 3 -16 34 1 10 -3
8 -11 -5 -13 -20 -48 -23 -48 -5 0 5 -6 7 -13 4 -17 -6 -41 42 -26 52 6 4 15
0 20 -7 4 -7 22 -14 38 -15 17 -1 28 2 25 7 -3 5 -13 9 -23 9 -10 0 -23 11
-29 25 -14 31 -15 38 -3 31 5 -3 11 1 15 9 7 20 13 19 13 -2z m1383 -9 c0 -8
-5 -12 -10 -9 -6 4 -8 11 -5 16 9 14 15 11 15 -7z m-1433 -17 c-6 -19 -24 -18
-29 1 -4 15 -1 18 14 14 10 -2 17 -9 15 -15z m6273 -89 c-1 -172 -45 -488 -82
-591 -6 -15 -20 -30 -32 -33 -22 -5 -31 -43 -13 -55 5 -3 -4 -6 -20 -5 -25 1
-29 5 -25 24 2 12 0 22 -6 22 -16 0 -25 -20 -10 -21 10 0 10 -2 1 -6 -7 -2
-13 -10 -13 -17 0 -6 -9 -19 -20 -29 -11 -9 -20 -12 -20 -6 0 19 -40 -37 -41
-58 -1 -17 -2 -17 -6 0 -3 10 -16 23 -30 28 -29 11 -28 11 -37 -19 -7 -20 -5
-21 19 -12 35 13 35 13 35 -9 0 -27 -16 -35 -25 -13 -6 15 -8 14 -21 -8 -8
-14 -14 -18 -13 -10 1 8 -2 26 -7 39 l-7 25 -9 -23 c-7 -20 -13 -22 -39 -17
-17 3 -40 6 -51 6 -12 0 -16 4 -12 11 4 7 1 10 -7 7 -7 -2 -16 -13 -19 -24 -3
-10 -11 -20 -19 -22 -9 -2 -12 4 -8 18 3 11 1 18 -4 14 -5 -3 -9 -16 -9 -28 0
-28 -38 -43 -47 -19 -3 8 -13 13 -24 10 -25 -7 -30 14 -10 38 16 20 16 20 -6
1 -18 -15 -20 -22 -12 -38 5 -10 14 -16 20 -13 5 4 9 -1 9 -9 0 -19 -12 -20
-29 -4 -10 11 -11 10 -6 -4 4 -10 3 -18 -2 -18 -13 0 -43 38 -43 55 0 8 -4 15
-9 15 -5 0 -16 3 -25 6 -11 4 -16 1 -16 -10 0 -9 -4 -16 -10 -16 -10 0 -14 20
-11 50 2 13 1 13 -8 0 -5 -8 -8 -17 -5 -21 2 -4 0 -10 -6 -14 -14 -8 -54 -16
-47 -8 3 3 1 11 -6 17 -15 15 -59 28 -51 15 3 -5 2 -9 -3 -9 -4 0 -16 17 -25
38 -18 39 -17 38 -103 46 -11 1 -32 8 -48 16 -25 12 -26 15 -12 30 14 16 14
18 0 24 -9 3 -13 2 -10 -4 3 -6 -5 -9 -19 -8 -14 1 -23 4 -21 7 9 9 -18 31
-37 31 -18 0 -19 2 -7 16 12 15 11 16 -11 9 -24 -7 -25 -7 -7 12 16 18 16 21
2 27 -9 3 -13 2 -10 -4 3 -6 1 -10 -5 -10 -7 0 -10 7 -7 15 4 8 2 17 -4 21 -7
4 -6 10 1 19 13 16 3 65 -14 62 -6 -1 -10 7 -9 18 6 53 23 126 37 153 8 16 13
32 9 35 -3 4 -1 19 6 34 6 15 12 43 13 62 3 42 9 44 198 81 186 37 361 62 685
100 143 17 265 32 270 35 6 2 13 4 18 4 4 1 7 -36 7 -81z m-6381 -42 c28 -51
51 -101 51 -110 0 -10 4 -15 9 -12 5 3 11 0 14 -8 3 -8 0 -17 -8 -20 -8 -3
-17 3 -20 15 -4 11 -17 31 -31 46 -13 14 -21 29 -18 34 3 5 1 9 -5 9 -10 0
-27 38 -23 53 1 4 -2 7 -7 7 -5 0 -18 15 -30 33 -21 34 -22 32 16 46 1 1 24
-41 52 -93z m-105 66 c3 -5 -1 -9 -9 -9 -8 0 -12 4 -9 9 3 4 7 8 9 8 2 0 6 -4
9 -8z m260 -58 c5 -14 4 -15 -9 -4 -17 14 -19 20 -6 20 5 0 12 -7 15 -16z m41
-34 c3 -5 2 -10 -4 -10 -5 0 -13 5 -16 10 -3 6 -2 10 4 10 5 0 13 -4 16 -10z
m84 1 c7 -5 9 -11 4 -14 -6 -4 -19 0 -29 8 -15 11 -16 14 -4 15 8 0 21 -4 29
-9z m-4170 -64 c22 -35 41 -66 41 -69 0 -12 -51 -120 -55 -116 -5 5 -35 199
-35 228 0 11 2 20 4 20 2 0 22 -28 45 -63z m3428 11 c-3 -7 -5 -2 -5 12 0 14
2 19 5 13 2 -7 2 -19 0 -25z m772 -43 c39 -47 53 -85 31 -85 -5 0 -10 4 -10 9
0 5 -13 14 -30 20 -16 5 -30 12 -30 15 0 3 6 3 14 0 8 -3 17 -1 21 5 3 6 1 11
-4 11 -6 0 -11 7 -11 16 0 8 -5 12 -10 9 -6 -4 -9 -2 -8 3 2 6 -1 9 -7 9 -5
-1 -9 -8 -8 -16 1 -9 -2 -10 -10 -2 -7 7 -7 14 2 24 6 8 8 23 5 33 -9 24 1 15
55 -51z m6410 18 c-7 -21 -17 -42 -21 -47 -4 -6 -8 -18 -8 -28 0 -20 -41 -88
-53 -88 -4 0 -4 8 1 18 24 46 71 150 77 170 4 13 9 21 12 19 3 -3 -1 -23 -8
-44z m-6629 -73 c0 -11 -5 -20 -11 -20 -5 0 -7 5 -4 10 3 6 1 10 -5 10 -6 0
-8 5 -5 10 10 17 25 11 25 -10z m288 -35 c-3 -3 -9 2 -12 12 -6 14 -5 15 5 6
7 -7 10 -15 7 -18z m-271 -7 c-3 -8 -6 -5 -6 6 -1 11 2 17 5 13 3 -3 4 -12 1
-19z m339 -6 c6 -12 13 -19 16 -17 3 3 8 -3 11 -15 3 -11 2 -22 -3 -25 -8 -5
-40 38 -40 54 0 6 -8 15 -17 21 -17 10 -16 10 2 8 11 -2 25 -13 31 -26z m3994
-86 c0 -3 -4 -8 -10 -11 -5 -3 -10 -1 -10 4 0 6 5 11 10 11 6 0 10 -2 10 -4z
m50 -20 c0 -2 -7 -7 -16 -10 -8 -3 -12 -2 -9 4 6 10 25 14 25 6z m2410 -1 c0
-15 -240 -115 -277 -115 -11 0 -11 3 -1 14 7 8 14 13 16 11 7 -6 149 43 197
68 50 26 65 31 65 22z m-2446 -40 c3 -8 1 -15 -4 -15 -6 0 -10 7 -10 15 0 8 2
15 4 15 2 0 6 -7 10 -15z m74 1 c-7 -8 -15 -12 -17 -11 -5 6 10 25 20 25 5 0
4 -6 -3 -14z m89 -45 c0 -11 -5 -17 -9 -15 -5 3 -6 9 -3 14 3 4 -1 11 -7 13
-8 4 -7 6 4 6 11 1 16 -6 15 -18z m526 -22 c-6 -6 -9 -19 -6 -28 4 -13 3 -13
-5 -2 -12 16 -5 41 11 41 8 0 8 -3 0 -11z m1764 -55 c-39 -21 -114 -47 -102
-35 11 10 103 49 120 50 6 0 -3 -7 -18 -15z m-2137 -12 c0 -4 -13 -13 -30 -19
-16 -6 -30 -16 -30 -22 0 -15 27 -14 32 1 3 8 10 8 26 -4 l22 -15 -26 -11
c-15 -7 -23 -8 -19 -2 3 5 -3 10 -15 10 -13 0 -24 9 -30 26 -6 15 -14 22 -22
18 -7 -4 -8 -3 -4 4 4 7 19 9 35 6 16 -4 32 -1 35 5 8 13 26 15 26 3z m2394
-44 c-7 -11 -34 3 -34 18 0 12 4 12 19 2 11 -7 18 -15 15 -20z m-385 -2 c-2
-2 -15 -9 -29 -16 -23 -12 -24 -12 -11 3 7 10 20 17 29 17 8 0 13 -2 11 -4z
m345 -12 c8 -21 8 -21 -10 -28 -12 -4 -15 -2 -10 9 3 8 1 15 -5 15 -6 0 -7 5
-4 10 9 15 22 12 29 -6z m-423 -24 c-26 -22 -50 -27 -29 -7 12 13 35 25 48 26
3 0 -6 -9 -19 -19z m284 10 c3 -5 -1 -10 -9 -10 -9 0 -16 5 -16 10 0 6 4 10 9
10 6 0 13 -4 16 -10z m-1788 -6 c-3 -3 -12 -4 -19 -1 -8 3 -5 6 6 6 11 1 17
-2 13 -5z m1093 -14 c0 -5 -2 -10 -4 -10 -3 0 -8 5 -11 10 -3 6 -1 10 4 10 6
0 11 -4 11 -10z m630 -10 c-8 -5 -19 -10 -25 -10 -5 0 -3 5 5 10 8 5 20 10 25
10 6 0 3 -5 -5 -10z m210 -31 c0 -4 -7 -6 -15 -3 -8 4 -15 10 -15 15 0 4 7 6
15 3 8 -4 15 -10 15 -15z m-314 -1 c-9 -5 -20 -7 -23 -4 -4 3 -14 -1 -24 -10
-10 -9 -25 -14 -33 -11 -9 4 -18 2 -21 -3 -3 -5 -13 -6 -21 -3 -9 3 -20 0 -26
-8 -7 -11 -8 -10 -6 5 2 14 13 20 40 23 21 2 47 7 57 11 11 4 32 8 48 9 23 1
24 0 9 -9z m-1579 -30 c-3 -7 -5 -2 -5 12 0 14 2 19 5 13 2 -7 2 -19 0 -25z
m33 8 c0 -3 -4 -8 -10 -11 -5 -3 -10 -1 -10 4 0 6 5 11 10 11 6 0 10 -2 10 -4z
m977 -18 c-3 -8 -6 -5 -6 6 -1 11 2 17 5 13 3 -3 4 -12 1 -19z m-1023 -28 c-6
-5 -24 21 -24 34 0 6 6 1 14 -10 8 -10 12 -21 10 -24z m-54 5 c0 -8 -2 -15 -4
-15 -2 0 -6 7 -10 15 -3 8 -1 15 4 15 6 0 10 -7 10 -15z m200 -15 c0 -5 -4
-10 -9 -10 -6 0 -13 5 -16 10 -3 6 1 10 9 10 9 0 16 -4 16 -10z m89 -33 c1 -5
-3 -5 -9 -2 -5 3 -10 16 -9 28 0 21 1 21 9 2 5 -11 9 -24 9 -28z m451 -21 c0
-3 -4 -8 -10 -11 -5 -3 -10 -1 -10 4 0 6 5 11 10 11 6 0 10 -2 10 -4z m-315
-16 c3 -5 1 -10 -4 -10 -6 0 -11 5 -11 10 0 6 2 10 4 10 3 0 8 -4 11 -10z
m-1447 -307 c63 -47 81 -83 42 -83 -22 0 -230 197 -230 218 0 8 28 -9 63 -38
34 -28 90 -72 125 -97z m-44 82 c3 -8 2 -15 -2 -15 -14 0 -52 31 -62 50 -10
19 -9 19 24 -1 19 -11 37 -26 40 -34z"/>
<path d="M9021 7283 c-1 -7 -14 -34 -31 -60 -32 -49 -38 -77 -17 -71 15 5 60
115 53 131 -3 9 -5 9 -5 0z"/>
<path d="M6032 7240 c0 -19 2 -27 5 -17 2 9 2 25 0 35 -3 9 -5 1 -5 -18z"/>
<path d="M6061 7230 c-1 -18 27 -81 57 -129 19 -32 21 -32 31 -12 10 17 6 26
-22 58 -19 21 -41 52 -50 68 -9 17 -16 23 -16 15z"/>
<path d="M6041 7190 c0 -8 4 -22 9 -30 12 -18 12 -2 0 25 -6 13 -9 15 -9 5z"/>
<path d="M9011 7124 c0 -11 3 -14 6 -6 3 7 2 16 -1 19 -3 4 -6 -2 -5 -13z"/>
<path d="M602 3913 c-21 -56 -23 -72 -8 -107 17 -40 45 -51 108 -43 34 5 143
65 134 74 -2 2 -26 -8 -53 -23 -28 -14 -69 -28 -91 -31 -34 -5 -44 -1 -66 20
-28 28 -34 73 -15 109 6 11 9 22 6 24 -2 3 -9 -8 -15 -23z"/>
<path d="M6413 8815 c-8 -19 -8 -24 0 -19 7 3 4 -1 -5 -8 -22 -19 -37 -74 -17
-64 8 4 3 -2 -11 -13 -14 -11 -19 -21 -12 -21 22 0 44 28 37 49 -3 11 0 23 6
27 8 4 9 3 5 -4 -4 -7 -5 -16 -1 -22 7 -11 35 -2 35 12 0 5 -4 6 -10 3 -5 -3
-10 1 -10 10 0 10 5 13 13 9 6 -4 4 1 -5 12 -12 14 -14 24 -7 37 6 9 6 17 2
17 -4 0 -13 -11 -20 -25z"/>
<path d="M6513 8710 c-3 -11 -9 -20 -14 -20 -5 0 -9 -11 -9 -25 0 -14 -4 -25
-9 -25 -10 0 -7 -277 3 -287 3 -3 -1 -18 -10 -34 -8 -16 -15 -32 -15 -36 0 -5
-7 -7 -15 -7 -8 1 -15 -8 -15 -20 -1 -11 -3 -31 -4 -43 -4 -37 22 -34 75 8 63
49 74 77 61 140 -6 27 -11 122 -12 211 -1 90 -3 157 -6 151 -3 -7 -9 -13 -14
-13 -6 0 -7 5 -4 10 3 6 3 10 0 10 -4 0 -9 -9 -12 -20z"/>
<path d="M6323 8639 c-32 -96 -45 -154 -47 -203 0 -24 -4 -42 -8 -39 -10 5
-10 -9 0 -22 15 -21 32 -15 28 9 -4 20 -1 24 12 19 9 -4 20 -11 24 -17 4 -6 8
-1 8 12 0 12 5 22 11 22 8 0 8 4 0 14 -9 11 -9 15 0 18 6 2 12 16 12 31 0 15
5 27 11 27 7 0 7 3 -1 8 -10 6 -9 14 2 35 7 14 11 26 7 26 -19 -3 -23 2 -12
16 9 11 10 15 1 15 -13 0 -41 24 -41 35 0 3 12 -2 27 -12 21 -14 25 -14 21 -3
-2 8 -11 15 -18 15 -7 0 -15 5 -17 12 -3 7 3 10 15 6 11 -2 23 1 27 7 5 9 1
10 -13 6 -15 -5 -21 -2 -24 10 -2 10 -13 -11 -25 -47z"/>
<path d="M6242 8170 c0 -19 2 -27 5 -17 2 9 2 25 0 35 -3 9 -5 1 -5 -18z"/>
<path d="M8070 8190 c-138 -11 -239 -27 -285 -44 -53 -19 -23 -19 95 0 52 8
186 17 298 21 144 4 200 9 192 17 -13 13 -176 17 -300 6z"/>
<path d="M6240 8014 c0 -36 0 -37 20 -19 21 19 27 30 10 20 -5 -3 -10 1 -10 9
0 8 -4 18 -10 21 -6 4 -10 -9 -10 -31z"/>
<path d="M6300 7910 c-12 -8 -9 -10 12 -10 15 0 30 5 33 10 8 13 -25 13 -45 0z"/>
<path d="M4965 6650 c3 -5 8 -10 11 -10 2 0 4 5 4 10 0 6 -5 10 -11 10 -5 0
-7 -4 -4 -10z"/>
<path d="M4458 6343 c7 -3 16 -2 19 1 4 3 -2 6 -13 5 -11 0 -14 -3 -6 -6z"/>
<path d="M4080 6215 c-7 -9 -11 -17 -9 -20 3 -2 10 5 17 15 14 24 10 26 -8 5z"/>
<path d="M3870 6180 c-8 -5 -12 -11 -10 -14 3 -2 14 2 24 10 22 15 10 19 -14
4z"/>
<path d="M4765 5470 c-3 -6 1 -7 9 -4 18 7 21 14 7 14 -6 0 -13 -4 -16 -10z"/>
<path d="M4040 5480 c-115 -6 -150 -18 -224 -75 -25 -19 -53 -35 -62 -35 -9 0
-31 15 -50 34 -33 33 -34 34 -34 10 0 -42 27 -92 59 -108 39 -21 49 -20 121 5
l61 21 40 -37 c36 -32 141 -105 152 -105 3 0 8 16 11 35 5 26 15 39 39 51 59
30 67 42 66 103 -1 31 -4 67 -8 81 -8 29 -14 30 -171 20z m156 -78 c-18 -16
-18 -16 -6 6 6 13 14 21 18 18 3 -4 -2 -14 -12 -24z"/>
<path d="M4061 5093 c-20 -14 -32 -14 -82 -5 -78 14 -100 7 -258 -88 -74 -44
-140 -80 -147 -80 -27 0 -65 -24 -61 -39 2 -9 8 -15 15 -14 6 2 23 -2 36 -7
19 -7 46 -4 100 10 62 16 110 19 288 18 150 0 222 -4 243 -13 l30 -13 -25 -10
c-14 -5 -43 -29 -65 -51 -22 -23 -52 -48 -67 -56 -36 -20 -167 -19 -238 1 -66
19 -130 33 -130 28 0 -3 79 -41 120 -57 8 -3 -9 -3 -37 0 -47 5 -53 3 -53 -12
0 -27 84 -102 127 -114 62 -18 193 -14 233 7 41 20 112 110 106 134 -2 9 7 27
20 39 14 13 28 37 32 53 5 21 18 36 40 46 35 17 41 42 14 62 -10 7 -40 41 -66
76 -75 95 -126 120 -175 85z m-101 -156 c0 -18 -5 -19 -52 -13 -59 8 -71 13
-62 27 3 6 30 9 60 8 46 -2 54 -5 54 -22z m108 11 c-3 -7 -20 -14 -39 -16 -32
-2 -33 -1 -15 13 24 18 59 20 54 3z"/>
<path d="M8792 5090 c0 -19 2 -27 5 -17 2 9 2 25 0 35 -3 9 -5 1 -5 -18z"/>
<path d="M8792 4970 c0 -19 2 -27 5 -17 2 9 2 25 0 35 -3 9 -5 1 -5 -18z"/>
<path d="M8801 4884 c0 -11 3 -14 6 -6 3 7 2 16 -1 19 -3 4 -6 -2 -5 -13z"/>
<path d="M8279 4553 c-13 -16 -12 -17 4 -4 9 7 17 15 17 17 0 8 -8 3 -21 -13z"/>
<path d="M9655 4510 c10 -11 20 -20 23 -20 3 0 -3 9 -13 20 -10 11 -20 20 -23
20 -3 0 3 -9 13 -20z"/>
<path d="M10350 3393 c0 -4 5 -15 10 -23 8 -13 10 -13 10 2 0 9 -4 20 -10 23
-5 3 -10 3 -10 -2z"/>
<path d="M10476 3162 c-2 -4 24 -66 58 -137 35 -72 69 -147 77 -169 13 -35 14
-36 19 -15 10 41 -7 114 -46 198 -35 76 -47 91 -57 74 -2 -5 -2 -3 -1 4 3 11
-28 53 -39 53 -3 0 -8 -4 -11 -8z"/>
<path d="M10493 2925 c3 -5 14 -31 25 -56 12 -25 30 -68 40 -95 33 -81 117
-239 120 -223 8 44 -99 285 -155 346 -19 21 -32 34 -30 28z"/>
<path d="M2113 5228 c0 -7 -4 -22 -8 -33 -6 -14 -5 -17 2 -10 15 14 26 55 15
55 -5 0 -9 -6 -9 -12z"/>
<path d="M2066 5173 c-6 -14 -5 -15 5 -6 7 7 10 15 7 18 -3 3 -9 -2 -12 -12z"/>
<path d="M5312 4290 c0 -14 2 -19 5 -12 2 6 2 18 0 25 -3 6 -5 1 -5 -13z"/>
<path d="M5301 4234 c0 -11 3 -14 6 -6 3 7 2 16 -1 19 -3 4 -6 -2 -5 -13z"/>
<path d="M5274 4154 c-14 -36 -17 -51 -8 -43 13 11 39 87 32 94 -2 2 -13 -21
-24 -51z"/>
<path d="M8660 2169 c0 -5 5 -7 10 -4 6 3 10 8 10 11 0 2 -4 4 -10 4 -5 0 -10
-5 -10 -11z"/>
<path d="M8657 2119 c-4 -16 -3 -18 9 -8 16 13 19 29 5 29 -5 0 -11 -9 -14
-21z"/>
<path d="M8727 1826 c-8 -8 -17 -12 -21 -9 -3 4 -6 3 -6 0 0 -3 10 -11 22 -18
18 -10 20 -9 15 4 -4 11 -2 14 9 10 7 -3 14 0 14 5 0 19 -18 23 -33 8z"/>
<path d="M9027 1563 c-15 -14 -5 -29 21 -30 26 -2 26 -2 4 8 -13 5 -20 13 -17
19 7 11 2 13 -8 3z"/>
<path d="M6030 3940 c-52 -27 -90 -49 -85 -49 6 0 53 22 105 49 52 27 91 49
85 49 -5 0 -53 -22 -105 -49z"/>
<path d="M5421 3736 c39 -34 119 -94 105 -78 -19 22 -19 23 0 38 18 14 18 15
-4 4 -18 -9 -28 -7 -56 15 -18 14 -37 25 -41 25 -5 0 -6 -2 -4 -4z"/>
<path d="M5580 3730 c-8 -5 -10 -10 -5 -10 6 0 17 5 25 10 8 5 11 10 5 10 -5
0 -17 -5 -25 -10z"/>
<path d="M5413 3220 c0 -41 2 -58 4 -37 2 20 2 54 0 75 -2 20 -4 3 -4 -38z"/>
<path d="M6256 2401 c-3 -5 2 -15 12 -22 15 -12 16 -12 5 2 -7 9 -10 19 -6 22
3 4 4 7 0 7 -3 0 -8 -4 -11 -9z"/>
<path d="M6325 2400 c-3 -5 -1 -10 4 -10 6 0 11 5 11 10 0 6 -2 10 -4 10 -3 0
-8 -4 -11 -10z"/>
<path d="M6165 2374 c0 -28 21 -49 29 -28 3 9 1 12 -4 9 -6 -3 -10 3 -10 13 0
21 28 25 43 7 5 -6 7 -4 5 4 -2 8 -17 15 -34 16 -24 1 -29 -3 -29 -21z"/>
<path d="M6125 2310 c3 -5 8 -10 11 -10 2 0 4 5 4 10 0 6 -5 10 -11 10 -5 0
-7 -4 -4 -10z"/>
<path d="M5574 2218 l-19 -23 23 19 c12 11 22 21 22 23 0 8 -8 2 -26 -19z"/>
<path d="M5873 2223 c0 -9 4 -10 14 -2 7 6 13 12 13 14 0 1 -6 2 -13 2 -8 0
-14 -6 -14 -14z"/>
<path d="M10501 2374 c-40 -7 -76 -16 -79 -19 -3 -3 52 -4 123 -3 114 3 130 5
133 21 3 14 -4 17 -50 16 -29 -1 -86 -7 -127 -15z"/>
<path d="M10388 2353 c7 -3 16 -2 19 1 4 3 -2 6 -13 5 -11 0 -14 -3 -6 -6z"/>
<path d="M9518 1538 c-8 -20 2 -38 20 -38 16 1 16 2 0 14 -13 10 -15 15 -6 24
8 8 9 12 1 12 -6 0 -13 -6 -15 -12z"/>
<path d="M9763 1357 c1 -15 5 -27 10 -27 10 0 9 22 -2 39 -7 10 -9 7 -8 -12z"/>
<path d="M9710 1340 c0 -5 7 -7 15 -4 8 4 15 8 15 10 0 2 -7 4 -15 4 -8 0 -15
-4 -15 -10z"/>
<path d="M9848 1301 c-8 -12 -18 -18 -23 -13 -5 4 -5 1 -1 -6 6 -11 13 -9 28
8 11 12 18 24 15 26 -3 3 -11 -4 -19 -15z"/>
<path d="M6543 5355 c0 -8 4 -12 9 -9 5 3 6 10 3 15 -9 13 -12 11 -12 -6z"/>
<path d="M6704 4398 l-19 -23 25 20 c14 11 27 21 29 22 2 2 0 3 -6 3 -5 0 -18
-10 -29 -22z"/>
<path d="M6649 4353 c-13 -16 -12 -17 4 -4 16 13 21 21 13 21 -2 0 -10 -8 -17
-17z"/>
<path d="M8070 4022 c-101 -141 -173 -252 -133 -206 10 12 28 27 41 33 21 11
22 11 16 -16 -27 -123 -38 -154 -81 -216 -60 -88 -50 -98 12 -11 30 42 50 62
55 54 12 -20 102 148 140 264 28 87 68 246 61 245 -4 0 -53 -66 -111 -147z"/>
<path d="M6590 3858 c0 -9 5 -20 10 -23 13 -8 13 5 0 25 -8 13 -10 13 -10 -2z"/>
<path d="M11340 3860 c0 -7 -7 -66 -15 -133 -16 -133 -24 -337 -14 -337 4 0 9
15 13 33 8 49 13 99 31 369 3 39 1 70 -5 73 -6 3 -10 1 -10 -5z"/>
<path d="M6687 3801 c3 -12 9 -21 13 -21 12 0 5 33 -8 38 -6 2 -8 -5 -5 -17z"/>
<path d="M6715 3689 c-4 -6 -5 -12 -2 -15 2 -3 7 2 10 11 7 17 1 20 -8 4z"/>
<path d="M7917 3525 c-15 -30 -25 -55 -22 -55 7 0 57 101 53 106 -2 2 -16 -21
-31 -51z"/>
<path d="M7776 3533 c-6 -14 -5 -15 5 -6 7 7 10 15 7 18 -3 3 -9 -2 -12 -12z"/>
<path d="M7825 3359 c-9 -17 -15 -33 -13 -35 3 -2 12 12 21 31 21 43 13 47 -8
4z"/>
<path d="M11300 3355 c0 -14 5 -25 10 -25 6 0 10 11 10 25 0 14 -4 25 -10 25
-5 0 -10 -11 -10 -25z"/>
<path d="M7641 3283 c-25 -50 -121 -281 -121 -290 1 -12 69 134 96 206 14 35
31 76 40 92 8 16 12 29 9 29 -2 0 -13 -17 -24 -37z"/>
<path d="M7796 3293 c-6 -14 -5 -15 5 -6 7 7 10 15 7 18 -3 3 -9 -2 -12 -12z"/>
<path d="M11386 3268 c-9 -35 -7 -68 4 -68 6 0 10 20 10 45 0 50 -4 57 -14 23z"/>
<path d="M11510 2449 c0 -9 -39 -97 -136 -308 -55 -119 -45 -121 66 -11 l80
81 0 124 c0 69 -2 125 -5 125 -3 0 -5 -5 -5 -11z"/>
<path d="M7695 2248 c-9 -62 -12 -2235 -2 -2244 4 -4 8 -5 10 -3 2 2 -1 144
-5 315 -4 172 -4 685 0 1140 4 456 7 831 6 832 -1 2 -5 -16 -9 -40z"/>
<path d="M8117 2063 c-4 -3 -7 -13 -7 -22 1 -13 3 -13 11 2 11 19 8 33 -4 20z"/>
<path d="M8139 2031 c-36 -37 -38 -65 -5 -67 21 -2 23 1 14 16 -9 14 -6 24 11
49 28 39 18 40 -20 2z"/>
<path d="M7154 1983 c-6 -10 -10 -38 -9 -63 1 -25 -2 -55 -6 -67 -5 -14 -4
-27 4 -35 13 -14 14 -25 19 -135 1 -40 5 -73 8 -73 5 0 11 -200 14 -470 1 -84
-2 -104 -13 -102 -10 2 -12 -4 -6 -25 9 -36 19 -368 11 -398 -3 -13 -17 -37
-31 -53 -13 -16 -21 -32 -18 -36 4 -4 -1 -4 -10 0 -11 4 -17 2 -15 -4 2 -6 -5
-17 -15 -24 -15 -11 -11 -13 34 -15 28 -1 53 -3 54 -5 2 -2 5 -66 6 -143 l3
-140 -46 -97 -47 -98 66 0 c63 0 65 1 59 23 -11 45 -18 436 -21 1132 -2 706
-4 767 -15 760 -3 -2 -12 0 -20 6 -8 5 -10 9 -4 9 6 0 11 16 11 35 0 19 -1 35
-1 35 -1 0 -6 -8 -12 -17z"/>
<path d="M7442 1878 c-13 -13 -16 -66 -6 -93 6 -16 54 -45 74 -45 14 0 50 37
50 52 0 7 -7 2 -16 -10 -8 -12 -23 -22 -33 -22 -39 0 -72 71 -51 109 12 23 1
28 -18 9z"/>
<path d="M8210 1870 c0 -5 5 -10 10 -10 6 0 10 -7 10 -17 0 -9 3 -14 6 -10 8
8 -5 47 -17 47 -5 0 -9 -4 -9 -10z"/>
<path d="M7551 1855 c1 -19 18 -51 18 -35 0 8 -4 22 -9 30 -5 8 -9 11 -9 5z"/>
<path d="M7390 1777 c0 -10 9 -35 20 -57 42 -83 108 -78 149 10 11 22 10 23
-2 8 -40 -50 -105 -39 -146 24 -14 23 -21 28 -21 15z"/>
<path d="M7843 1676 c5 -48 23 -96 37 -96 11 0 3 96 -10 123 -21 44 -33 32
-27 -27z"/>
<path d="M7850 1512 c0 -24 5 -42 11 -42 6 0 8 -7 5 -16 -3 -8 -2 -13 3 -10 5
3 14 -8 21 -24 7 -17 14 -29 16 -27 3 3 -45 149 -52 156 -2 2 -4 -14 -4 -37z"/>
<path d="M7960 1532 c6 -13 14 -21 18 -18 3 4 -2 14 -12 24 -18 16 -18 16 -6
-6z"/>
<path d="M7018 1521 c-10 -10 -18 -29 -19 -42 0 -21 -1 -22 -8 -5 -6 15 -9 16
-13 5 -9 -23 -9 -34 1 -34 5 0 12 -3 16 -7 9 -9 35 1 35 14 0 5 -4 7 -8 4 -5
-3 -9 1 -9 9 0 8 4 12 8 9 4 -2 10 0 14 6 3 5 1 10 -4 10 -6 0 -11 5 -11 11 0
5 5 7 10 4 6 -3 10 3 10 14 0 25 0 25 -22 2z"/>
<path d="M8322 1498 c-14 -14 -16 -28 -2 -28 5 0 14 9 20 20 12 22 1 27 -18 8z"/>
<path d="M6980 1430 c0 -6 -4 -9 -8 -6 -5 3 -9 -1 -9 -9 0 -12 3 -12 16 -3 9
7 17 13 19 14 2 1 -1 5 -7 9 -6 3 -11 1 -11 -5z"/>
<path d="M7010 1420 c0 -5 5 -10 11 -10 5 0 7 5 4 10 -3 6 -8 10 -11 10 -2 0
-4 -4 -4 -10z"/>
<path d="M7911 1364 c0 -11 3 -14 6 -6 3 7 2 16 -1 19 -3 4 -6 -2 -5 -13z"/>
<path d="M8076 1345 c4 -8 11 -15 16 -15 6 0 5 6 -2 15 -7 8 -14 15 -16 15 -2
0 -1 -7 2 -15z"/>
<path d="M6910 1316 c0 -2 7 -9 15 -16 9 -7 15 -8 15 -2 0 5 -7 12 -15 16 -8
3 -15 4 -15 2z"/>
<path d="M6937 1236 c3 -6 13 -19 21 -28 10 -12 11 -18 4 -18 -7 0 -12 -5 -12
-11 0 -6 9 -8 22 -3 20 6 21 5 10 -8 -10 -13 -10 -17 2 -21 9 -4 18 -2 21 4 9
13 -5 50 -16 44 -5 -4 -9 -2 -9 4 0 5 5 11 11 13 7 2 4 10 -7 18 -11 9 -15 10
-10 3 4 -7 2 -13 -3 -13 -6 0 -11 6 -11 13 0 8 -7 14 -15 14 -8 0 -11 -5 -8
-11z"/>
<path d="M7460 835 c-19 -13 -40 -24 -46 -24 -35 -2 -45 -121 -15 -186 22 -50
74 -95 107 -95 49 0 114 97 114 170 0 51 -34 116 -72 140 -41 25 -45 24 -88
-5z m74 -31 c5 -14 4 -15 -9 -4 -17 14 -19 20 -6 20 5 0 12 -7 15 -16z m-44
-38 c0 -8 -4 -18 -10 -21 -5 -3 -10 3 -10 14 0 12 5 21 10 21 6 0 10 -6 10
-14z"/>
<path d="M7836 748 c-3 -13 -7 -186 -11 -386 l-6 -362 24 0 c25 0 25 0 10 43
-12 35 -14 102 -11 385 1 188 2 342 1 342 -2 0 -5 -10 -7 -22z"/>
<path d="M6650 132 c0 -12 4 -22 9 -22 10 0 9 26 -2 36 -4 4 -7 -2 -7 -14z"/>
</g>
</svg>
